<?xml version="1.0" standalone="no"?>
<!DOCTYPE svg PUBLIC "-//W3C//DTD SVG 1.1//EN" "http://www.w3.org/Graphics/SVG/1.1/DTD/svg11.dtd" >
<svg xmlns="http://www.w3.org/2000/svg">
<metadata></metadata>
<defs>
<font id="pf_beausans_probold" horiz-adv-x="1337" >
<font-face units-per-em="2048" ascent="1536" descent="-512" />
<missing-glyph horiz-adv-x="587" />
<glyph horiz-adv-x="0" />
<glyph horiz-adv-x="682" />
<glyph unicode=" "  horiz-adv-x="587" />
<glyph unicode="&#x09;" horiz-adv-x="587" />
<glyph unicode="&#xa0;" horiz-adv-x="587" />
<glyph unicode="!" horiz-adv-x="616" d="M125 158q0 73 54.5 125.5t129.5 52.5q78 0 131.5 -51.5t53.5 -126.5q0 -74 -53.5 -126t-131.5 -52t-131 51.5t-53 126.5zM152 1391q-2 22 8.5 32.5t38.5 10.5h217q30 0 39.5 -11.5t7.5 -31.5l-47 -887q0 -24 -10.5 -31.5t-36.5 -7.5h-123q-29 0 -38.5 7t-10.5 30z" />
<glyph unicode="&#x22;" horiz-adv-x="983" d="M139 1391q-6 45 47 45h209q32 0 40.5 -11t6.5 -34l-49 -537q-1 -24 -11 -30.5t-36 -6.5h-108q-30 0 -39.5 6t-10.5 29zM537 1391q-1 23 11 34t38 11h209q32 0 40.5 -11t6.5 -34l-49 -537q-1 -24 -11.5 -30.5t-38.5 -6.5h-108q-28 0 -38 6.5t-11 28.5z" />
<glyph unicode="#" d="M119 313l22 115q3 12 4 15t5 8.5t10 6.5t18 1h156l59 289h-157q-20 0 -26 7t-1 25l24 111q1 2 3 8.5t2.5 8t3.5 6t6 6t8.5 3t13.5 1.5h160l55 254q5 17 11.5 21.5t29.5 4.5h119q25 0 32 -5.5t3 -27.5l-51 -247h239l54 254q5 17 11.5 21.5t29.5 4.5h118q25 0 31 -5.5 t2 -27.5l-51 -247h162q33 0 24 -35l-26 -109q-4 -20 -11 -26t-24 -6h-160l-59 -289h161q29 0 23 -35l-27 -111q-4 -18 -11 -24t-21 -6h-160l-55 -254q-6 -22 -13 -26q-7 -3 -24 -3h-131q-19 0 -26 6t-3 25l53 252h-239l-54 -254q-6 -22 -12 -25.5t-24 -3.5h-130q-20 0 -27 6 t-3 25l53 252h-156q-33 0 -24 30zM530 459h240l61 289h-239z" />
<glyph unicode="$" d="M152 160q5 16 30 78t31 79q10 20 20.5 24t28.5 -3q118 -53 264 -80v377q-67 30 -112.5 54t-93.5 58.5t-76 71t-46 86.5t-18 109q-2 146 85 246.5t261 128.5v174q0 8 1 13t2 7.5t5.5 4t5.5 1.5h9h10h45h10.5h8.5t6.5 -0.5t5.5 -2l3 -4.5t2.5 -7.5t0.5 -11.5v-1768 q0 -7 -0.5 -11.5t-2.5 -7.5l-3 -4.5t-5.5 -2t-6.5 -0.5h-8.5h-10.5h-45h-7h-6.5h-5.5t-4.5 0.5t-3.5 2t-2.5 3l-1.5 4.5t-1.5 7t-0.5 9v193q-217 25 -364 116q-25 16 -10 56zM457 1022q0 -66 69 -113v213q-69 -32 -69 -100zM709 -205v1768q0 8 1.5 13t2 7.5t5.5 4t6.5 1.5 h9.5h11h37h10.5h8.5t6.5 -0.5t5.5 -2l3 -4.5t2.5 -7.5t0.5 -11.5v-177q171 -26 268 -77q32 -14 13 -56l-53 -149q-7 -23 -16.5 -28t-29.5 1q-89 28 -182 45v-336q83 -39 141 -74.5t112 -84.5t81 -111.5t27 -138.5q0 -167 -96.5 -264t-264.5 -123v-195q0 -7 -0.5 -11.5 t-2.5 -7.5l-3 -4.5t-5.5 -2t-6.5 -0.5h-8.5h-10.5h-37h-11h-9.5t-6.5 1.5t-5.5 4t-2 7.5t-1.5 13zM819 256q91 36 94 127q0 41 -22 72.5t-72 62.5v-262z" />
<glyph unicode="%" horiz-adv-x="1986" d="M74 961q0 200 100.5 316t292.5 116q193 0 291 -114t98 -316q0 -196 -101 -312t-292 -116t-290 113t-99 313zM311 963q0 -111 37 -176.5t119 -65.5q151 0 151 240q0 243 -155 243q-152 0 -152 -241zM469.5 -55q-5.5 11 5.5 28l848 1442q9 14 12.5 19t12.5 8.5t24 3.5h121 q20 0 25.5 -10.5t-5.5 -30.5l-841 -1434q-21 -37 -70 -37h-104q-23 0 -28.5 11zM1130 414q0 200 101 316t293 116q193 0 291 -114t98 -316q0 -196 -101 -312t-292 -116t-290.5 113t-99.5 313zM1368 416q0 -111 37 -176.5t119 -65.5q151 0 151 240q0 243 -155 243 q-152 0 -152 -241z" />
<glyph unicode="&#x26;" horiz-adv-x="1570" d="M131 360q0 140 81.5 258.5t209.5 196.5q-127 149 -127 293q0 157 111.5 253.5t273.5 96.5q163 0 269 -88t106 -233q0 -226 -250 -387q32 -44 131 -156q128 213 326 266q64 20 124 23q16 0 21 -4.5t10 -18.5l27 -178q1 -16 -4.5 -21t-24.5 -10q-117 -23 -187 -87 t-122 -169q30 -34 190 -213q39 -45 125 -139q13 -11 7.5 -27t-29.5 -16h-223q-57 0 -86 31q-42 42 -52 55q-15 18 -40.5 46.5t-30.5 33.5q-175 -191 -418 -191q-191 0 -304.5 103t-113.5 282zM414 379q0 -66 37.5 -106t119.5 -40q59 0 124 38.5t102 93.5q-71 84 -213 258 q-170 -109 -170 -244zM567 1106q0 -79 88 -174q129 80 129 172q0 46 -27.5 79.5t-74.5 33.5q-53 0 -84 -30.5t-31 -80.5z" />
<glyph unicode="'" horiz-adv-x="583" d="M139 1391q-2 23 9.5 34t37.5 11h209q32 0 40.5 -11t6.5 -34l-49 -537q-1 -24 -11 -30.5t-36 -6.5h-108q-30 0 -39.5 6t-10.5 29z" />
<glyph unicode="(" horiz-adv-x="714" d="M98 655q0 127 28.5 245.5t82.5 221.5t116.5 189t143.5 172q19 22 30.5 22t32.5 -18l109 -74q17 -12 18.5 -19t-10.5 -24q-127 -165 -188.5 -332.5t-61.5 -369.5q0 -209 61 -373.5t189 -325.5q21 -30 -8 -51l-109 -78q-13 -11 -23 -11.5t-16.5 4.5t-21.5 22 q-84 89 -144.5 168.5t-116 179t-84 213.5t-28.5 239z" />
<glyph unicode=")" horiz-adv-x="731" d="M98.5 1393.5q1.5 6.5 18.5 17.5l108 76q24 18 35 18t29 -20q370 -388 370 -823q0 -126 -28 -241.5t-81.5 -215t-115.5 -181.5t-145 -167q-19 -24 -29.5 -27t-34.5 10l-108 76q-29 24 -8 51q129 167 189 329t60 366q0 209 -61 376t-188 332q-12 17 -10.5 23.5z" />
<glyph unicode="*" horiz-adv-x="1038" d="M138.5 1062.5q-3.5 5.5 2.5 35.5l37 116q12 43 47 25l215 -94l-24 231q-3 17 7.5 26t33.5 9h127q24 0 30 -6t2 -29l-22 -235l207 94q23 10 34 3.5t17 -30.5l41 -118q9 -40 -25 -43l-229 -56q14 -15 77.5 -85t78.5 -85q16 -20 12.5 -31t-23.5 -26l-100 -74 q-16 -12 -24 -13.5t-13 3.5t-14 22l-121 201l-115 -203q-11 -22 -24 -23.5t-31 13.5q-10 8 -52 39t-52 39q-19 15 -21 24t14 27l156 176l-221 56q-24 6 -27.5 11.5z" />
<glyph unicode="+" d="M150 625v157q0 29 6.5 37t29.5 8h344v361q0 22 9.5 29.5t33.5 7.5h191q29 0 36 -6.5t7 -30.5v-361h344q23 0 30 -8t7 -37v-157q0 -25 -7 -34t-30 -9h-344v-361q0 -24 -7 -30.5t-36 -6.5h-191q-24 0 -33.5 7.5t-9.5 29.5v361h-344q-23 0 -29.5 8.5t-6.5 34.5z" />
<glyph unicode="," horiz-adv-x="577" d="M131 -233l25 524q2 25 11.5 35t37.5 10h233q32 0 40 -11.5t3 -33.5l-147 -522q-6 -24 -14 -30.5t-31 -6.5h-111q-50 0 -47 35z" />
<glyph unicode="-" horiz-adv-x="813" d="M104 514v184q0 26 7 34.5t30 8.5h521q23 0 29.5 -8t6.5 -35v-184q0 -25 -7 -34t-29 -9h-521q-22 0 -29.5 9.5t-7.5 33.5z" />
<glyph unicode="." horiz-adv-x="610" d="M119 160q0 77 55.5 130.5t134.5 53.5q80 0 134.5 -53t54.5 -131t-54.5 -131.5t-134.5 -53.5q-78 0 -134 53.5t-56 131.5z" />
<glyph unicode="/" horiz-adv-x="944" d="M25 -160l641 1721q6 19 17 25.5t40 6.5h172q21 0 29.5 -7.5t1.5 -29.5l-639 -1718q-8 -20 -21.5 -27.5t-44.5 -7.5h-164q-44 0 -32 37z" />
<glyph unicode="0" d="M82 686q0 217 64.5 376t198 249t325.5 90q291 0 437 -188.5t146 -522.5q0 -161 -36.5 -291.5t-108.5 -224.5t-184 -145.5t-258 -51.5q-193 0 -325.5 89t-195.5 246t-63 374zM389 690q0 -102 15 -183t47 -145t87.5 -98.5t131.5 -34.5q75 0 130 34t87 97.5t46.5 144 t14.5 181.5q0 214 -68 338.5t-214 124.5q-277 0 -277 -459z" />
<glyph unicode="1" d="M268 1100v149q0 22 6.5 33t30.5 18l340 93q48 13 87.5 10.5t65 -31t25.5 -78.5v-1050h236q24 0 30.5 -6.5t6.5 -34.5v-162q0 -24 -7 -32.5t-30 -8.5h-750q-23 0 -30 8.5t-7 32.5v162q0 28 6.5 34.5t30.5 6.5h217v860l-217 -37q-24 -4 -32.5 2.5t-8.5 30.5z" />
<glyph unicode="2" d="M143 190q0 74 51.5 162.5t143.5 175.5q126 122 332 252q116 71 155 118.5t39 107.5q0 57 -46.5 96t-151.5 39q-157 0 -320 -107q-37 -23 -57 6l-94 144q-19 32 8 53q218 164 487 164q139 0 246.5 -41.5t172.5 -129.5t65 -212q0 -75 -23.5 -138t-71.5 -115.5t-103.5 -94.5 t-135.5 -88q-73 -40 -140 -90t-128.5 -117t-86.5 -131h645q24 0 30.5 -6.5t6.5 -34.5v-162q0 -24 -7 -32.5t-30 -8.5h-800q-97 0 -142 40t-45 150z" />
<glyph unicode="3" d="M123 147q-1 9 10 27l90 148q14 24 28 26.5t40 -14.5q131 -96 313 -96q122 0 187 56t65 155q0 71 -56 118t-163 47h-53q-49 0 -61.5 12t-12.5 56v82q0 47 10.5 60.5t46.5 13.5h60q94 0 147 44t53 115t-56 106.5t-138 35.5q-76 0 -158.5 -23.5t-148.5 -68.5 q-26 -17 -40 -15t-26 25l-82 137q-13 18 -12.5 30t16.5 25q94 75 222.5 113.5t254.5 38.5q96 0 178 -20.5t149 -62t105.5 -112.5t38.5 -164q0 -98 -60 -184t-155 -123v-10q86 -23 143.5 -72.5t82 -111t24.5 -133.5q0 -196 -149.5 -313.5t-390.5 -117.5q-303 0 -484 144 q-17 17 -18 26z" />
<glyph unicode="4" d="M88 387v51q0 93 51 154l553 708q26 33 43.5 51t55 36t83.5 18h99q63 0 88.5 -28.5t25.5 -100.5v-762h132q26 0 35.5 -7t9.5 -34v-160q0 -23 -9.5 -31t-33.5 -8h-134v-235q0 -24 -8 -31.5t-37 -7.5h-208q-43 0 -43 39v233h-574q-59 0 -94 24t-35 91zM393 522l4 -10h391 v498l-8 6z" />
<glyph unicode="5" d="M115 174q10 15 31 47.5t44 69t29 45.5q13 20 29 20t41 -18q136 -98 327 -98q139 0 214 58t75 161q0 93 -61.5 143.5t-157.5 50.5q-55 0 -106.5 -11.5t-78 -22t-87.5 -37.5q-63 -27 -119 -7l-72 21q-46 17 -62 44t-11 75l53 512q14 151 151 151h715q28 0 36.5 -7t8.5 -38 v-162q0 -26 -10 -35.5t-35 -9.5h-598l-31 -266q107 37 269 37q221 0 361 -116.5t140 -313.5q0 -118 -44 -212.5t-121 -155t-180 -92.5t-224 -32q-154 0 -280 32t-234 118q-27 21 -12 49z" />
<glyph unicode="6" d="M102 625q0 134 26 251t80.5 214.5t135 167t194.5 108.5t253 39q179 0 290 -41q12 -4 16.5 -7.5t9 -15.5t-4.5 -32l-45 -162q-7 -22 -22 -26t-31 3q-100 27 -201 27q-154 0 -250 -76.5t-127 -222.5q58 17 144.5 29t152.5 12q112 0 205.5 -25t166 -76.5t113.5 -136.5 t41 -198q0 -96 -30 -175.5t-82 -135.5t-122 -94.5t-150 -56.5t-167 -18q-294 0 -445 172t-151 476zM410 559q0 -152 77 -240t211 -88q110 0 178 56t68 159q0 98 -59 151.5t-174 53.5q-137 0 -301 -45v-47z" />
<glyph unicode="7" d="M123 1174v157q0 31 8.5 40t34.5 9h903q107 0 107 -92v-63q0 -67 -33 -129l-580 -1051q-18 -27 -34 -36t-50 -9h-225q-24 0 -33 16t2 35l596 1075h-653q-25 0 -34 9.5t-9 38.5z" />
<glyph unicode="8" d="M111 401q0 109 63.5 205t161.5 133v6q-60 23 -101 70t-56 93t-15 91q0 95 41 173.5t110 128.5t158.5 77t188.5 27q227 0 360 -105t133 -280q0 -45 -16 -93.5t-56.5 -100.5t-99.5 -83v-4q77 -25 129.5 -81t74 -117.5t21.5 -126.5q0 -194 -147 -315.5t-404 -121.5 q-255 0 -400.5 115.5t-145.5 308.5zM418 420q0 -81 58 -139t181 -58q126 0 185 60t59 141q0 92 -67.5 145.5t-174.5 53.5q-106 0 -173.5 -56t-67.5 -147zM461 979q0 -63 54.5 -106.5t139.5 -43.5q88 0 145.5 46.5t57.5 109.5q0 72 -51 119t-150 47q-98 0 -147 -49t-49 -123z " />
<glyph unicode="9" d="M92 928q0 95 30 174.5t81.5 134.5t122 93.5t150 56.5t165.5 18q293 0 444.5 -172t151.5 -475q0 -168 -42 -308t-124.5 -247t-216 -166.5t-307.5 -59.5q-176 0 -287 41q-22 10 -25 19q-5 13 3 37l45 164q5 21 20 25t33 -3q106 -27 201 -27q152 0 248.5 76.5t127.5 222.5 q-53 -19 -136 -31t-152 -12q-112 0 -206.5 25.5t-168.5 77t-116 137.5t-42 199zM397 938q0 -97 61 -151t171 -54q152 0 299 43q4 17 4 49q0 146 -82 237t-207 91q-102 0 -174 -57.5t-72 -157.5z" />
<glyph unicode=":" horiz-adv-x="610" d="M119 162q0 75 56 128.5t134 53.5q80 0 134.5 -52t54.5 -130q0 -77 -55 -129.5t-134 -52.5t-134.5 52t-55.5 130zM119 889q0 76 56 129t134 53q80 0 134.5 -52t54.5 -130q0 -77 -55 -129.5t-134 -52.5t-134.5 52t-55.5 130z" />
<glyph unicode=";" horiz-adv-x="606" d="M131 889q0 78 54 130t134 52t134.5 -52t54.5 -130t-54.5 -130t-134.5 -52t-134 52t-54 130zM135 -229l27 516q2 26 12 37.5t37 11.5h233q32 0 39.5 -13t1.5 -36l-145 -514q-6 -25 -14.5 -33t-32.5 -8h-109q-26 0 -38 9.5t-11 29.5z" />
<glyph unicode="&#x3c;" d="M152 664v67q0 39 15.5 56.5t55.5 37.5l916 432q15 8 24.5 9t14.5 -6t6.5 -15.5t1.5 -21.5v-158q0 -31 -7 -43t-38 -29l-623 -284l619 -285q34 -17 41.5 -29.5t7.5 -46.5v-162q0 -16 -3 -25t-13.5 -13.5t-30.5 8.5l-916 430q-37 18 -53.5 35.5t-17.5 42.5z" />
<glyph unicode="=" d="M172 399v162q0 24 6 31.5t29 7.5h923q22 0 28.5 -8.5t6.5 -32.5v-156q0 -25 -7.5 -35t-29.5 -10h-917q-39 0 -39 41zM172 827v158q0 27 7.5 35t31.5 8h915q23 0 30 -8.5t7 -34.5v-158q0 -24 -7.5 -33.5t-29.5 -9.5h-915q-39 0 -39 43z" />
<glyph unicode="&#x3e;" d="M154 186v162q0 34 7.5 46.5t41.5 29.5l616 285l-622 284q-29 17 -36 29t-7 43v158q0 13 1.5 21.5t6.5 15.5t14.5 6t24.5 -9l913 -432q42 -20 58 -37.5t16 -56.5v-67q-1 -25 -18.5 -42.5t-55.5 -35.5l-915 -430q-45 -27 -45 30z" />
<glyph unicode="?" horiz-adv-x="1185" d="M123 1245q-17 30 12 49q103 77 229.5 115.5t241.5 38.5q98 0 182 -20t152.5 -61.5t107.5 -111.5t39 -163q0 -50 -16 -97.5t-46.5 -90.5t-60.5 -76.5t-73 -73.5q-15 -15 -47.5 -46.5t-48.5 -47.5t-39.5 -43t-34.5 -46t-20 -43.5t-9 -48.5v-47q0 -18 -6.5 -24.5t-26.5 -6.5 h-223q-11 0 -17.5 2t-9 7.5t-3 9.5t-0.5 16v66q0 51 15 97t47.5 89t57 69.5t69.5 68.5q13 12 19 18q66 61 100 109t34 108q0 51 -43 85t-125 34q-151 0 -314 -99q-16 -12 -29 -11.5t-24 17.5zM352 143q0 74 56.5 127.5t134.5 53.5q73 0 128.5 -48t55.5 -133 q0 -75 -54 -125.5t-132 -50.5q-79 0 -134 49.5t-55 126.5z" />
<glyph unicode="@" horiz-adv-x="2011" d="M152 664q0 177 69.5 333t189.5 266.5t286.5 174t355.5 63.5q372 0 589.5 -213.5t217.5 -572.5q0 -227 -120.5 -362.5t-316.5 -135.5q-100 0 -168 33t-92 88q-51 -36 -117 -58t-131 -22q-321 0 -321 268q0 130 87.5 210.5t254.5 80.5h172v21q0 52 -26 80t-107 28 q-94 0 -217 -26q-29 -6 -39 -3t-14 23l-23 109q-5 24 0 32t29 19q143 43 297 43q175 0 256.5 -74.5t81.5 -224.5v-324q0 -114 110 -114q99 0 150 82t51 221q0 272 -163.5 437t-440.5 165q-153 0 -284 -50.5t-220.5 -137.5t-140 -205.5t-50.5 -251.5q0 -284 182 -459.5 t482 -175.5q134 0 270 51q15 5 20.5 6.5t12 -2t10.5 -14.5l43 -117q5 -18 1.5 -25t-21.5 -18q-70 -34 -167 -53t-175 -19q-196 0 -358.5 61t-273.5 169.5t-171.5 261t-60.5 332.5zM838 543q0 -92 123 -92q92 0 145 38v164h-129q-139 0 -139 -110z" />
<glyph unicode="A" horiz-adv-x="1341" d="M29 41l426 1284q20 66 52.5 89.5t96.5 23.5h123q73 0 104.5 -20.5t55.5 -92.5l426 -1284q4 -6 4 -13q1 -6 -3 -14q-6 -14 -28 -14h-244q-18 0 -28 1.5t-18.5 9t-12.5 22.5l-80 266h-469l-80 -260q-6 -22 -17.5 -30.5t-39.5 -8.5h-240q-30 0 -30 25q0 7 2 16zM508 553h321 l-77 260l-76 293h-12l-78 -293z" />
<glyph unicode="B" horiz-adv-x="1392" d="M154 125v1184q0 69 25.5 98t96.5 29h502q129 0 225.5 -36.5t156 -119.5t59.5 -207q0 -85 -44 -160t-114 -114v-15q110 -43 164.5 -138.5t54.5 -209.5q0 -192 -141 -314t-348 -122h-515q-71 0 -96.5 28t-25.5 97zM465 274h295q56 0 96.5 17t61.5 45.5t30.5 58.5t9.5 62 q0 84 -51 134t-147 50h-295v-367zM465 891h278q28 0 53 6t49 21t38 44t14 70q0 61 -38.5 96t-104.5 35h-289v-272z" />
<glyph unicode="C" horiz-adv-x="1316" d="M113 709q0 336 182 540.5t477 204.5q244 0 402 -88q24 -12 26.5 -24.5t-10.5 -47.5l-64 -141q-11 -30 -21.5 -35.5t-39.5 4.5q-151 54 -279 54q-163 0 -254.5 -130.5t-91.5 -336.5q0 -104 18 -183t58.5 -140.5t110.5 -93.5t168 -32q61 0 125.5 13.5t93.5 23.5t96 35 q30 10 41.5 5t22.5 -30l69 -147q11 -24 11 -38q0 -4 -1 -6q-3 -14 -22 -24q-188 -115 -473 -115q-328 0 -486.5 190t-158.5 542z" />
<glyph unicode="D" horiz-adv-x="1427" d="M154 125v1184q0 69 25.5 98t96.5 29h383q141 0 253 -37.5t186.5 -102t124 -155.5t71 -194t21.5 -222q0 -118 -19 -220.5t-65 -197t-117 -161.5t-181 -106.5t-251 -39.5h-406q-71 0 -96.5 28t-25.5 97zM465 274h166q84 0 147.5 22t104 60.5t65.5 97t35 123.5t10 148 q0 100 -17 175t-57 136.5t-114 94t-180 32.5h-160v-889z" />
<glyph unicode="E" horiz-adv-x="1255" d="M154 377v680q0 76 20.5 142t63.5 120.5t117.5 85.5t174.5 31h588q24 0 31.5 -10t7.5 -40v-174q0 -26 -8 -35.5t-31 -9.5h-520q-74 0 -103.5 -33.5t-29.5 -93.5v-157h588q24 0 31.5 -9.5t7.5 -39.5v-160q0 -26 -7.5 -36.5t-31.5 -10.5h-588v-234q0 -69 32 -96t101 -27h541 q26 0 33.5 -9t7.5 -40v-174q0 -26 -8.5 -36.5t-32.5 -10.5h-607q-88 0 -155.5 21.5t-109 57t-67.5 86t-36 101.5t-10 111z" />
<glyph unicode="F" horiz-adv-x="1210" d="M154 43v1014q0 61 11.5 114.5t39.5 103t70 84.5t107.5 56t147.5 21h598q26 0 33.5 -10t7.5 -40v-174q0 -26 -9 -35.5t-32 -9.5h-530q-74 0 -103.5 -33t-29.5 -94v-188h582q24 0 31 -9t7 -40v-160q0 -26 -8 -36.5t-30 -10.5h-582v-553q0 -29 -8 -36t-39 -7h-217 q-25 0 -36 9.5t-11 33.5z" />
<glyph unicode="G" horiz-adv-x="1417" d="M113 711q0 342 173.5 542.5t489.5 200.5q254 0 412 -88q24 -13 27 -24.5t-13 -47.5l-63 -145q-11 -30 -22 -35.5t-40 4.5q-143 51 -289 51q-173 0 -260.5 -125.5t-87.5 -334.5q0 -106 17 -185t55.5 -141t107 -93.5t166.5 -31.5q128 0 213 31l2 303q-20 1 -40 1 q-126 0 -242 -50q-29 -12 -40.5 -11t-21.5 23l-53 166q-8 16 -4 28.5t25 22.5q75 37 172 59.5t192 22.5q112 0 178 -14q84 -19 110 -72t26 -158v-430q0 -33 -10 -55t-40 -41q-74 -44 -181.5 -70t-177.5 -31.5t-136 -5.5q-328 0 -486.5 190.5t-158.5 543.5z" />
<glyph unicode="H" horiz-adv-x="1486" d="M154 43v1348q0 24 11 33.5t36 9.5h217q31 0 40 -8.5t9 -34.5v-510h555v510q0 25 10.5 34t36.5 9h215q31 0 40 -8.5t9 -34.5v-1348q0 -26 -9 -34.5t-40 -8.5h-215q-26 0 -36.5 9t-10.5 34v573h-555v-573q0 -26 -9 -34.5t-40 -8.5h-217q-25 0 -36 9.5t-11 33.5z" />
<glyph unicode="I" horiz-adv-x="673" d="M180 43v1348q0 24 11 33.5t36 9.5h217q31 0 40.5 -8.5t9.5 -34.5v-1348q0 -26 -9.5 -34.5t-40.5 -8.5h-217q-25 0 -36 9.5t-11 33.5z" />
<glyph unicode="J" horiz-adv-x="1208" d="M17 102q0 9 10 35l73 168q10 22 20.5 24t29.5 -7q156 -66 315 -66q84 0 139 24t84 73t40 107.5t11 143.5v789q0 27 10 34t37 7h218q29 0 38 -6.5t9 -34.5v-840q0 -136 -29.5 -239t-94 -180t-174 -117t-261.5 -40q-106 0 -236 26t-219 79q-20 12 -20 20z" />
<glyph unicode="K" horiz-adv-x="1398" d="M154 43v1348q0 24 11 33.5t36 9.5h215q31 0 39 -7t8 -36v-549l8 -4l193 243l256 320q19 20 37 26.5t59 6.5h264q19 0 25 -11t-7 -28l-405 -482l477 -862q10 -17 10 -28q0 -5 -2 -9q-6 -14 -28 -14h-238h-31t-21 2t-19.5 7t-14 14t-16.5 24l-330 612l-217 -260v-356 q0 -29 -8 -36t-39 -7h-215q-25 0 -36 9.5t-11 33.5z" />
<glyph unicode="L" horiz-adv-x="1183" d="M154 377v1016q0 24 11 33.5t36 9.5h217q31 0 40 -8.5t9 -34.5v-994q0 -73 35 -102t102 -29h520q24 0 31.5 -7.5t7.5 -35.5v-182q0 -43 -39 -43h-592q-88 0 -155.5 21.5t-109 57t-67.5 86t-36 101.5t-10 111z" />
<glyph unicode="M" horiz-adv-x="1781" d="M154 41v1251q0 78 29.5 111t101.5 33h118q56 0 84.5 -21t53.5 -76l223 -499l127 -291h8l139 319l209 467q26 58 56 79.5t94 21.5h100q69 0 100 -29t31 -104v-1262q0 -28 -9 -34.5t-38 -6.5h-203q-26 0 -35.5 7t-9.5 34v784h-12l-84 -190l-170 -377q-23 -54 -46.5 -72 t-70.5 -18h-112q-49 0 -69 16.5t-46 73.5l-127 266l-127 277h-12v-760q0 -28 -9 -34.5t-38 -6.5h-209q-27 0 -37 7t-10 34z" />
<glyph unicode="N" horiz-adv-x="1523" d="M154 43v1249q0 80 29 112t104 32h86q62 0 89 -16.5t64 -76.5l348 -530l177 -276h10v856q0 25 9 34t38 9h215q47 0 47 -43v-1252q0 -71 -29 -106t-104 -35h-86q-62 0 -89.5 16t-64.5 74l-327 496l-197 305h-10v-848q0 -26 -9 -34.5t-38 -8.5h-215q-25 0 -36 9.5t-11 33.5z " />
<glyph unicode="O" horiz-adv-x="1495" d="M113 715q0 345 169 543t463 198q313 0 475 -194t162 -541q0 -359 -159 -551.5t-484 -192.5q-313 0 -469.5 190t-156.5 548zM438 727q0 -112 15.5 -195t51 -146.5t97 -95.5t148.5 -32q85 0 147 37t95.5 102.5t49 144t15.5 173.5q0 79 -8 143.5t-29 125.5t-55 102.5 t-89 66.5t-128 25q-101 0 -172.5 -62.5t-104.5 -162.5t-33 -226z" />
<glyph unicode="P" horiz-adv-x="1318" d="M154 43v1268q0 62 26.5 93.5t95.5 31.5h502q219 0 349 -125.5t130 -323.5q0 -34 -4.5 -70t-18.5 -83.5t-36.5 -89t-62.5 -84t-93 -72.5t-131.5 -49t-173.5 -19h-272v-477q0 -29 -8.5 -36t-40.5 -7h-215q-25 0 -36 9.5t-11 33.5zM465 772h268q100 0 151.5 54.5t51.5 140.5 q0 32 -9.5 63t-30.5 62t-63.5 50t-101.5 19h-266v-389z" />
<glyph unicode="Q" horiz-adv-x="1495" d="M113 715q0 345 169 543t463 198q313 0 475 -194t162 -541q0 -359 -159 -551.5t-484 -192.5q-313 0 -469.5 190t-156.5 548zM438 727q0 -112 15.5 -195t51 -146.5t97 -95.5t148.5 -32q85 0 147 37t95.5 102.5t49 144t15.5 173.5q0 79 -8 143.5t-29 125.5t-55 102.5 t-89 66.5t-128 25q-101 0 -172.5 -62.5t-104.5 -162.5t-33 -226zM645 -137q0 24 6 31.5t29 7.5h231q174 0 312 -36.5t215 -94.5q18 -12 21 -23q1 -2 1 -5q0 -9 -8 -24l-76 -139q-11 -20 -24 -22q-2 -1 -5 -1q-12 0 -34 11q-189 98 -459 98h-174q-22 0 -28.5 8.5t-6.5 30.5 v158z" />
<glyph unicode="R" horiz-adv-x="1370" d="M154 43v1268q0 65 26 95t96 30h502q221 0 344 -112t123 -304q0 -107 -50 -198.5t-140 -139.5l2 -10q63 -28 93 -78.5t52 -136.5l105 -410q3 -7 3 -14q0 -9 -4 -17q-8 -16 -30 -16h-215q-21 0 -33 1.5t-27.5 11t-21.5 28.5l-90 362q-26 98 -77.5 138.5t-145.5 40.5h-199 v-539q0 -29 -8 -36t-39 -7h-219q-25 0 -36 9.5t-11 33.5zM469 834h272q89 0 137 45t48 120q0 30 -8.5 56.5t-27.5 51t-55.5 39.5t-86.5 15h-279v-327z" />
<glyph unicode="S" horiz-adv-x="1228" d="M70 130v5q0 12 8 33l69 164q10 24 22.5 28.5t35.5 -6.5q237 -96 405 -96q120 0 172 40t52 103q0 62 -49 104t-179 91q-119 45 -198.5 85t-147.5 93t-100.5 119t-32.5 149q0 182 124 299t363 117q118 0 245 -25.5t214 -68.5q25 -12 28.5 -23.5t-7.5 -42.5l-54 -153 q-10 -28 -20.5 -33t-34.5 2q-218 66 -371 66q-163 0 -163 -113q0 -53 51 -92t188 -94q68 -27 115 -47t101 -47.5t89.5 -54t71 -61.5t55.5 -73t32.5 -87t12.5 -105q0 -210 -144 -319.5t-390 -109.5q-143 0 -288.5 32t-254.5 97q-18 12 -20 24z" />
<glyph unicode="T" horiz-adv-x="1175" d="M25 1208v183q0 26 7.5 34.5t30.5 8.5h1049q25 0 33 -8.5t8 -34.5v-183q0 -41 -41 -41h-371v-1124q0 -26 -9 -34.5t-40 -8.5h-219q-25 0 -36 9.5t-11 33.5v1124h-363q-38 0 -38 41z" />
<glyph unicode="U" horiz-adv-x="1468" d="M152 1391q0 24 11.5 33.5t35.5 9.5h219q31 0 40 -8.5t9 -34.5v-813q0 -88 14.5 -147t51 -101.5t100 -62t160.5 -19.5q141 0 213 16v1127q0 24 11 33.5t36 9.5h217q30 0 37.5 -8t7.5 -35v-1192q0 -77 -34 -126t-116 -71q-106 -27 -350 -27q-182 0 -303 29.5t-203.5 101.5 t-118.5 191t-36 299z" />
<glyph unicode="V" horiz-adv-x="1359" d="M29 1401q-2 7 -2 13q1 7 3 12q6 10 23 10h246q27 0 37.5 -8t17.5 -29l215 -694l105 -363h14l96 358l220 705q6 19 18 25t37 6h250q18 0 23 -12q2 -5 2 -11t-3 -12l-440 -1292q-22 -67 -53.5 -88t-94.5 -21h-127q-63 0 -95 22t-56 89z" />
<glyph unicode="W" horiz-adv-x="1851" d="M29 1397q-3 13 -3 22t4 13q6 6 31 6h250q32 0 46 -8t20 -37l102 -594l62 -367h14l78 371l110 516q18 68 45 92.5t91 24.5h118q58 0 81 -24t38 -85l115 -539l74 -348h12l57 348l105 601q4 30 15 38.5t38 8.5h264q22 0 28 -8q3 -4 3 -12t-4 -21l-291 -1291q-19 -72 -46 -90 t-93 -18h-113q-65 0 -93.5 20.5t-49.5 92.5l-119 544l-80 377h-12l-86 -377l-125 -544q-17 -70 -45 -91.5t-92 -21.5h-119q-35 0 -52.5 2t-37.5 11.5t-31.5 31.5t-18.5 59z" />
<glyph unicode="X" horiz-adv-x="1265" d="M18 14q-2 6 -3 11q0 8 5 16l437 704l-400 652q-12 12 -4.5 25.5t29.5 13.5h240q41 0 56 -7.5t32 -37.5l225 -400l223 400q17 30 32 37.5t56 7.5h236q22 0 28 -14t-6 -27l-395 -647l436 -707q5 -8 5 -16q0 -6 -2 -11q-6 -14 -23 -14h-256q-37 0 -54 9t-34 38l-250 445 l-248 -445q-19 -29 -35.5 -38t-54.5 -9h-252q-17 0 -23 14z" />
<glyph unicode="Y" horiz-adv-x="1280" d="M19 1422q7 14 28 14h258q28 0 39.5 -9t22.5 -36l137 -285l131 -293h12l135 303l136 281q11 22 22 30.5t33 8.5h260q30 0 30 -18q0 -8 -6 -19l-456 -871v-487q0 -24 -8.5 -32.5t-36.5 -8.5h-224q-43 0 -43 41v483l-469 873q-4 6 -4 13q0 5 3 12z" />
<glyph unicode="Z" horiz-adv-x="1288" d="M61 111v49q0 46 16 81t50 76l692 840l-2 12h-622q-39 0 -39 43v179q0 29 7 37t32 8h895q67 0 94.5 -25.5t27.5 -91.5v-68q0 -72 -71 -159l-668 -811l4 -15h705q23 0 30 -8t7 -37v-178q0 -25 -7 -34t-30 -9h-1002q-61 0 -90 26t-29 85z" />
<glyph unicode="[" horiz-adv-x="747" d="M156 -141v1573q0 22 8.5 32.5t30.5 10.5h446q19 0 25 -7t6 -26v-156q0 -19 -6 -25t-29 -6h-199v-1220h203q19 0 25 -6.5t6 -24.5v-154q0 -21 -5.5 -27.5t-25.5 -6.5h-446q-22 0 -30.5 10.5t-8.5 32.5z" />
<glyph unicode="\" horiz-adv-x="944" d="M24.5 1583q9.5 10 30.5 10h170q28 0 40 -8.5t20 -28.5l639 -1714q12 -39 -33 -39h-164q-30 0 -44 7.5t-21 29.5l-637 1714q-10 19 -0.5 29z" />
<glyph unicode="]" horiz-adv-x="759" d="M135 4q0 18 6.5 24.5t26.5 6.5h201v1220h-201q-20 0 -26.5 6.5t-6.5 24.5v152q0 23 6.5 30t26.5 7h442q43 0 43 -43v-1573q0 -43 -43 -43h-444q-20 0 -25.5 6.5t-5.5 30.5v151z" />
<glyph unicode="^" horiz-adv-x="1193" d="M76.5 785q-5.5 11 5.5 28l375 617q35 61 92 61h78q30 0 49 -7.5t27 -17.5t22 -34l373 -615q11 -19 4 -30t-25 -11h-192q-43 0 -60 31l-233 405h-6l-228 -397q-13 -25 -27 -33t-40 -8h-189q-20 0 -25.5 11z" />
<glyph unicode="_" horiz-adv-x="1024" d="M-35 -190q0 29 6 37t29 8h1024q23 0 30 -8t7 -37v-68q0 -24 -7.5 -33.5t-29.5 -9.5h-1024q-22 0 -28.5 9t-6.5 34v68z" />
<glyph unicode="`" horiz-adv-x="1120" d="M265.5 1563.5q3.5 11.5 19.5 15.5l213 53q22 4 31 -1.5t16 -20.5l141 -359q9 -21 5 -27.5t-23 -11.5l-113 -41q-17 -5 -26 -1.5t-21 20.5l-238 352q-8 10 -4.5 21.5z" />
<glyph unicode="a" horiz-adv-x="1179" d="M92 319q0 165 110 266t322 101h226v33q0 68 -37 106.5t-142 38.5q-65 0 -148.5 -11t-139.5 -28q-26 -6 -36.5 0t-15.5 27l-32 143q-6 23 -2 32t22 15q177 62 395 62q220 0 326.5 -94.5t106.5 -282.5v-594q0 -30 -8 -47t-35 -33q-161 -76 -435 -76q-477 0 -477 342z M399 342q0 -129 179 -129q105 0 170 27v247h-162q-187 0 -187 -145z" />
<glyph unicode="b" horiz-adv-x="1236" d="M133 119v1337q0 24 10 32.5t35 8.5h211q24 0 33.5 -8t9.5 -33v-385q103 33 242 33q122 0 214 -42.5t147.5 -119t82.5 -176t27 -219.5q0 -122 -30.5 -222.5t-93 -180t-168 -123.5t-245.5 -44q-263 0 -438 80q-23 10 -30 23t-7 39zM432 252q72 -21 160 -21q118 0 181 73 t63 237q0 152 -59 229.5t-167 77.5q-101 0 -178 -27v-569z" />
<glyph unicode="c" horiz-adv-x="1046" d="M92 535q0 263 137.5 415t372.5 152q187 0 324 -70q26 -12 29.5 -22t-7.5 -35l-57 -158q-10 -22 -22.5 -24.5t-41.5 6.5q-116 37 -202 37q-114 0 -169 -84.5t-55 -216.5q0 -139 51.5 -215t178.5 -76q114 0 235 47q26 11 36.5 7.5t17.5 -26.5l57 -153q10 -17 10 -30 q0 -16 -24 -28q-154 -84 -379 -84q-242 0 -367 140.5t-125 417.5z" />
<glyph unicode="d" horiz-adv-x="1236" d="M92 528q0 118 29 219.5t87.5 182t155 126.5t222.5 46q110 0 217 -23v375q0 25 9 33t36 8h209q25 0 35 -8t10 -33v-1261q0 -72 -4 -93q-4 -42 -104.5 -72t-204 -40.5t-179.5 -10.5q-143 0 -246 40.5t-161 116.5t-84.5 172.5t-26.5 221.5zM401 524q0 -158 61.5 -226.5 t182.5 -68.5q91 0 158 25v571q-94 21 -168 21q-109 0 -171.5 -79t-62.5 -243z" />
<glyph unicode="e" horiz-adv-x="1163" d="M92 532q0 268 137 419t371 151q237 0 358 -119t121 -344q0 -101 -38.5 -142.5t-114.5 -41.5h-525q4 -123 69 -174.5t177 -51.5q115 0 236 52q25 8 34.5 5t16.5 -20l65 -147q7 -19 3.5 -28.5t-21.5 -20.5q-70 -46 -169 -69.5t-194 -23.5q-270 0 -398 134t-128 421z M408 645h383q0 99 -42 155t-143 56q-83 0 -136.5 -58.5t-61.5 -152.5z" />
<glyph unicode="f" horiz-adv-x="827" d="M23 887v117q0 20 7 28.5t29 14.5l144 32v117q0 149 82 235.5t252 86.5q146 0 266 -33q21 -7 25 -17q1 -3 1 -8q0 -7 -4 -18l-34 -170q-4 -18 -13 -23t-26 0q-88 15 -140 15q-64 0 -88 -25.5t-24 -71.5v-92h245q19 0 25 -6.5t6 -26.5v-157q0 -19 -6 -26t-29 -7h-241v-815 q0 -24 -8 -30.5t-33 -6.5h-213q-23 0 -33 7.5t-10 31.5v813h-150q-11 0 -17.5 2t-9 7.5t-3 9.5t-0.5 16z" />
<glyph unicode="g" horiz-adv-x="1236" d="M92 539q0 120 32 220t96 176.5t169 119.5t242 43q261 0 432 -78q25 -13 33 -26.5t8 -37.5v-845q0 -142 -37 -245.5t-112.5 -171t-177.5 -106t-245 -57.5q-10 -2 -17 -2q-9 0 -13 3q-8 5 -13 26l-26 196q-4 21 1 26.5t25 10.5q54 9 92.5 18.5t83.5 27.5t72.5 41t46.5 59.5 t19 82.5v13q-97 -31 -240 -31q-237 0 -354 143.5t-117 393.5zM401 545q0 -152 58.5 -220.5t169.5 -68.5q99 0 176 27v540q-79 23 -158 23q-119 0 -182.5 -71t-63.5 -230z" />
<glyph unicode="h" horiz-adv-x="1247" d="M133 37v1421q0 39 41 39h213q28 0 35.5 -7.5t7.5 -31.5v-387q103 33 240 33q220 0 333 -118t113 -337v-612q0 -25 -7.5 -31t-37.5 -6h-213q-24 0 -33.5 7.5t-9.5 29.5v573q0 115 -45.5 176.5t-157.5 61.5q-106 0 -182 -27v-784q0 -25 -7 -31t-36 -6h-211q-24 0 -33.5 7.5 t-9.5 29.5z" />
<glyph unicode="i" horiz-adv-x="638" d="M154 1356q0 71 50 120.5t120 49.5q71 0 121.5 -49.5t50.5 -120.5q0 -72 -50 -120t-122 -48q-70 0 -120 48.5t-50 119.5zM172 37v1001q0 22 9.5 29.5t33.5 7.5h209q29 0 37 -7t8 -30v-1001q0 -23 -8 -30t-37 -7h-209q-24 0 -33.5 7.5t-9.5 29.5z" />
<glyph unicode="j" horiz-adv-x="653" d="M-50 -222q5 8 30 21q118 59 160 139t42 216v884q0 23 8.5 30t32.5 7h215q28 0 34.5 -6.5t6.5 -30.5v-882q0 -114 -20.5 -206t-55 -155.5t-86.5 -113t-107 -79.5t-124 -53q-21 -7 -32 -7q-1 -1 -2 -1q-11 0 -17 5q-7 6 -12 20l-68 176q-6 18 -6 28q0 5 1 8zM164 1356 q0 71 50.5 120.5t121.5 49.5q72 0 121 -49t49 -121t-49 -120t-121 -48t-122 48t-50 120z" />
<glyph unicode="k" horiz-adv-x="1130" d="M131 39v1421q0 22 9.5 29.5t33.5 7.5h213q29 0 35 -6t6 -31v-758l8 -4l293 349q18 18 29 23t39 5h250q27 0 31 -13t-11 -30l-274 -319l317 -672q4 -10 4 -18q0 -23 -35 -23h-237q-26 0 -39 7.5t-23 31.5l-194 438l-156 -176q0 -23 -1 -124t-1 -138q0 -24 -7.5 -31.5 t-35.5 -7.5h-211q-43 0 -43 39z" />
<glyph unicode="l" horiz-adv-x="675" d="M147 262v1196q0 19 6 27.5t13.5 10t26.5 1.5h208q25 0 35 -7.5t10 -29.5v-1136q0 -53 15 -74t61 -21q13 0 76 7q19 2 26.5 -3t8.5 -22l18 -156q2 -10 2 -17q-1 -8 -3 -12q-4 -7 -29 -18q-77 -31 -215 -31q-131 0 -195 63t-64 222z" />
<glyph unicode="m" horiz-adv-x="1908" d="M133 37v874q0 75 25 113.5t102 56.5q35 7 126 14t151 7q253 0 383 -96q68 45 165.5 71.5t194.5 26.5q254 0 375 -135.5t121 -370.5v-561q0 -23 -8 -30t-37 -7h-209q-24 0 -33.5 7.5t-9.5 29.5v526q0 146 -52 216.5t-180 70.5q-42 0 -98 -10.5t-86 -26.5q33 -90 33 -235 v-541q0 -23 -8 -30t-37 -7h-211q-24 0 -33.5 7.5t-9.5 29.5v553q0 136 -50.5 201t-185.5 65q-82 0 -131 -10v-809q0 -24 -7 -30.5t-36 -6.5h-211q-24 0 -33.5 7.5t-9.5 29.5z" />
<glyph unicode="n" horiz-adv-x="1247" d="M133 37v878q0 73 26.5 111.5t100.5 54.5q41 7 138.5 14t158.5 7q291 0 424 -122.5t133 -408.5v-534q0 -24 -7 -30.5t-36 -6.5h-213q-24 0 -33.5 7.5t-9.5 29.5v553q0 140 -53.5 203t-192.5 63q-82 0 -139 -10v-809q0 -24 -7 -30.5t-36 -6.5h-211q-24 0 -33.5 7.5 t-9.5 29.5z" />
<glyph unicode="o" horiz-adv-x="1218" d="M92 539q0 263 138 413t378 150q254 0 386 -146.5t132 -412.5q0 -274 -131 -420t-391 -146t-386 145t-126 417zM399 543q0 -157 49.5 -235.5t157.5 -78.5q109 0 160 84.5t51 223.5q0 313 -205 313q-106 0 -159.5 -81t-53.5 -226z" />
<glyph unicode="p" horiz-adv-x="1236" d="M133 -383v1335q0 24 8 37.5t33 26.5q182 82 453 82q113 0 202 -28.5t148 -78.5t97 -121.5t54.5 -153t16.5 -177.5q0 -117 -29.5 -216t-87 -176t-151 -121t-213.5 -44q-115 0 -232 24v-389q0 -23 -7 -29t-36 -6h-213q-25 0 -34 6.5t-9 28.5zM432 260q88 -22 170 -22 q232 0 232 307q0 162 -61.5 229.5t-184.5 67.5q-79 0 -156 -23v-559z" />
<glyph unicode="q" horiz-adv-x="1236" d="M92 522q0 100 19 185.5t60.5 158t104 123.5t153 80t202.5 29q257 0 432 -80q25 -11 33 -25.5t8 -36.5v-1339q0 -24 -7.5 -31.5t-35.5 -7.5h-213q-43 0 -43 39v397q-100 -32 -242 -32q-122 0 -214 40t-147.5 113t-82.5 170t-27 217zM401 539q0 -301 228 -301q101 0 176 26 v557q-79 23 -158 23q-119 -2 -182.5 -73.5t-63.5 -231.5z" />
<glyph unicode="r" horiz-adv-x="956" d="M147 37v872q0 85 29.5 125t116.5 53q90 11 156 11q140 0 270.5 -36.5t230.5 -109.5q16 -11 16 -25q0 -12 -8 -22l-106 -170q-6 -10 -10 -14.5t-12.5 -3t-12.5 4t-20 11.5q-131 98 -271 101q-35 0 -82 -7v-790q0 -25 -7.5 -31t-37.5 -6h-209q-24 0 -33.5 7.5t-9.5 29.5z " />
<glyph unicode="s" horiz-adv-x="1017" d="M66 100v5q0 10 8 26l59 141q11 24 21.5 28.5t33.5 -5.5q67 -29 161.5 -51.5t156.5 -22.5q133 0 133 90q0 40 -40.5 69.5t-145.5 68.5q-87 33 -145.5 63.5t-104 69.5t-67 87.5t-21.5 110.5q0 141 102.5 231.5t296.5 90.5q205 0 360 -70q22 -10 25 -21.5t-6 -35.5l-51 -131 q-7 -22 -17.5 -25.5t-33.5 4.5q-152 47 -271 47q-51 0 -77.5 -23.5t-26.5 -53.5q0 -40 36 -66t134 -63q59 -23 96 -39t83.5 -40.5t74.5 -49.5t54 -58.5t38 -76t12 -93.5q0 -161 -115 -245.5t-311 -84.5q-115 0 -230.5 25t-201.5 76q-18 11 -20 22z" />
<glyph unicode="t" horiz-adv-x="862" d="M31 895v111q0 21 5 28t27 13l152 34l14 193q1 24 11.5 34.5t35.5 16.5l189 61q7 2 13 2q28 0 28 -38v-275h225q22 0 27.5 -7.5t5.5 -27.5v-145q0 -16 -1 -22.5t-8.5 -11.5t-23.5 -5h-225v-520q0 -58 28.5 -81.5t90.5 -23.5q61 0 153 15q32 6 35 -21l25 -172q3 -8 3 -15 q0 -4 -1 -8q-3 -10 -23 -18q-113 -35 -280 -35q-173 0 -250.5 72.5t-77.5 222.5v584h-143q-21 0 -28 9.5t-7 29.5z" />
<glyph unicode="u" horiz-adv-x="1228" d="M133 508v530q0 24 7.5 31.5t35.5 7.5h213q43 0 43 -39v-549q0 -73 8.5 -119t32.5 -82t69.5 -51.5t116.5 -15.5q69 0 140 10v807q0 24 7.5 31.5t35.5 7.5h211q43 0 43 -39v-874q0 -71 -28.5 -111t-98.5 -57q-48 -8 -141 -14.5t-154 -6.5q-296 0 -418.5 121t-122.5 412z " />
<glyph unicode="v" horiz-adv-x="1140" d="M28 1068q6 7 27 7h232q32 0 42.5 -6.5t18.5 -30.5l131 -420l94 -346h13l94 349l125 415q6 24 16 31.5t41 7.5h228q25 0 25 -19q0 -6 -3 -14l-319 -944q-22 -66 -52 -87t-90 -21h-153q-52 0 -80.5 21.5t-52.5 86.5l-336 940q-3 12 -3 20q-1 7 2 10z" />
<glyph unicode="w" horiz-adv-x="1626" d="M31 1040q-3 10 -3 17q0 9 4 13q7 8 29 7h232q20 0 27.5 -1.5t14.5 -8.5t11 -23l70 -364l55 -332h12l72 258l92 320q18 54 43.5 76t79.5 22h107q26 0 43 -5.5t29.5 -23.5t16.5 -27t17 -42l94 -316l74 -264h12l49 326l68 370q4 23 11.5 28t33.5 5l240 2q21 1 27 -7 q4 -5 5 -15q0 -6 -2 -15l-235 -940q-18 -65 -47 -87.5t-82 -22.5h-107q-59 0 -84 19t-49 87l-90 295l-80 279h-10l-84 -283l-92 -291q-25 -66 -50 -86t-81 -20h-113q-53 0 -81 22t-46 88z" />
<glyph unicode="x" horiz-adv-x="1071" d="M16 12q-2 4 -1 9q0 10 8 24l346 522l-310 471q-9 10 -4.5 23.5t23.5 13.5h246q30 0 44.5 -8t24.5 -31l144 -264l145 264q12 23 26.5 31t43.5 8h241q38 0 23 -35l-316 -469l349 -528q8 -12 8 -21q1 -4 -1 -9q-6 -13 -30 -13h-240q-33 0 -46.5 9.5t-26.5 35.5l-178 315 l-183 -315q-13 -25 -28.5 -35t-44.5 -10h-234q-23 0 -29 12z" />
<glyph unicode="y" horiz-adv-x="1144" d="M25 1036q-3 10 -3 17q0 22 29 22h240q31 0 42 -7t17 -30l117 -413l96 -357h12l105 363l123 403q6 24 16.5 32.5t40.5 8.5h244q25 0 25 -19q0 -6 -3 -14l-413 -1222v2q-47 -140 -134 -201t-235 -61q-115 0 -203 28q-25 6 -31.5 14t-0.5 31l34 162q6 23 14 27t31 -2 q54 -10 101 -10q75 0 114.5 24.5t61.5 93.5l37 111h-60q-47 0 -67 16.5t-39 71.5z" />
<glyph unicode="z" horiz-adv-x="1032" d="M47 88v62q0 70 49 126l490 553l-4 9h-447q-24 0 -30.5 7.5t-6.5 31.5v159q0 39 39 39h729q55 0 79 -17t24 -65v-71q0 -71 -41 -117l-492 -553l4 -10h500q24 0 31.5 -7t7.5 -30v-166q0 -24 -7 -31.5t-30 -7.5h-797q-98 0 -98 88z" />
<glyph unicode="{" horiz-adv-x="860" d="M135 594v139q0 13 6 18.5t25 10.5q113 10 113 149v164q0 204 105 299t337 99q29 3 29 -27v-158q0 -28 -27 -31q-44 -2 -74.5 -11.5t-48 -23.5t-27 -38t-12 -47.5t-2.5 -59.5v-139q0 -226 -149 -281v-6q76 -30 112.5 -95.5t36.5 -180.5v-172q0 -43 5.5 -72t22 -55.5 t50 -40t84.5 -15.5q29 -3 29 -24v-164q0 -29 -27 -29q-227 5 -335.5 102t-108.5 300v209q0 71 -30.5 107.5t-82.5 41.5q-19 5 -25 10t-6 21z" />
<glyph unicode="|" horiz-adv-x="548" d="M160 -295v1872q0 43 41 43h157q28 0 35.5 -8.5t7.5 -34.5v-1872q0 -26 -7.5 -34.5t-35.5 -8.5h-157q-41 0 -41 43z" />
<glyph unicode="}" horiz-adv-x="860" d="M139 -2q0 22 27 25q51 2 84.5 15.5t50 39.5t22 55t5.5 72v172q0 115 37 180.5t114 95.5v6q-151 53 -151 281v139q0 48 -4.5 75t-20 53t-49 38.5t-88.5 16.5q-27 0 -27 28v158q0 27 27 27q233 -4 338.5 -99t105.5 -299v-164q0 -71 30.5 -108.5t80.5 -42.5q19 -1 26 -8 t7 -21v-137q0 -28 -31 -31q-50 -5 -81.5 -43t-31.5 -108v-209q0 -202 -108.5 -298t-337.5 -102q-17 0 -21 5.5t-4 23.5v164z" />
<glyph unicode="~" d="M152 592q65 96 139.5 140t167.5 44q51 0 111 -18.5t105.5 -41t98 -41t90.5 -18.5q44 0 77.5 22.5t74.5 70.5q17 26 43 10l123 -90q22 -17 6 -45q-55 -88 -138.5 -140.5t-175.5 -52.5q-61 0 -138 30t-148 59.5t-119 29.5q-47 0 -83 -17.5t-73 -58.5q-23 -26 -43 -10 l-114 86q-19 17 -4 41z" />
<glyph unicode="&#xa2;" d="M199 535q0 250 124.5 399t342.5 166v168q0 17 6.5 22.5t21.5 5.5h64q17 0 21.5 -4.5t4.5 -23.5v-170q138 -13 248 -66q26 -12 30 -22t-7 -35l-58 -158q-10 -22 -22 -24.5t-41 6.5q-69 22 -150 32v-585q86 7 189 45q26 11 36 7.5t17 -26.5l57 -153q12 -20 10 -33.5 t-24 -24.5q-115 -64 -285 -79v-177q0 -19 -4.5 -23.5t-21.5 -4.5h-64q-15 0 -21.5 5.5t-6.5 22.5v172q-230 8 -348.5 148t-118.5 410zM508 535q0 -118 35.5 -189.5t122.5 -93.5v573q-82 -23 -120 -100.5t-38 -189.5z" />
<glyph unicode="&#xa3;" d="M162 629v112q0 24 7 32.5t30 8.5h110q-1 4 -11 47.5t-13.5 61t-8 52.5t-4.5 63q0 98 38.5 173.5t107.5 122t160.5 70t201.5 23.5q214 0 367 -84q25 -16 26 -28t-14 -42l-55 -127q-11 -27 -22 -32t-42 5q-131 46 -245 46q-87 0 -144 -39t-57 -113q0 -93 33 -199h321 q24 0 29.5 -6t5.5 -35v-112q0 -24 -6 -30.5t-29 -6.5h-307q3 -52 0 -98q-12 -164 -74 -242h580q24 0 30.5 -6.5t6.5 -34.5v-174q0 -23 -7 -30t-30 -7h-879q-45 0 -72.5 20t-27.5 60v59q0 40 12 65t45 62q53 50 76 102.5t31 120.5q7 45 4 103h-137q-23 0 -30 7t-7 30z" />
<glyph unicode="&#xa5;" d="M89 1363q7 13 30 13h246q29 0 39.5 -7t21.5 -32l127 -282l113 -275h10l112 277l125 284q8 19 19.5 27t34.5 8h256q41 0 22 -37l-262 -524h191q15 0 21.5 -5t7.5 -10.5t1 -21.5v-90q0 -17 -1 -22.5t-7.5 -10t-21.5 -4.5h-996q-22 0 -26.5 7t-4.5 30v90q0 15 1 21.5t8 11 t22 4.5h178l-266 524q-8 11 -1 24zM147 426v90q0 15 1 21.5t8 11t22 4.5h996q15 0 21.5 -5t7.5 -10.5t1 -21.5v-90q0 -17 -1 -22.5t-7.5 -10t-21.5 -4.5h-349v-354q0 -23 -7 -29t-36 -6h-217q-41 0 -41 35v354h-346q-22 0 -26.5 7t-4.5 30z" />
<glyph unicode="&#xa8;" horiz-adv-x="1157" d="M246 1364q0 61 45.5 106.5t105.5 45.5q62 0 108 -45.5t46 -106.5q0 -60 -46 -105t-108 -45q-60 0 -105.5 45t-45.5 105zM666 1364q0 61 45.5 106.5t107.5 45.5q60 0 106 -45.5t46 -106.5q0 -60 -46 -105t-106 -45q-61 0 -107 45t-46 105z" />
<glyph unicode="&#xa9;" horiz-adv-x="1712" d="M113 717q0 155 57 292t155 235t236.5 155t294.5 57q209 0 380 -96.5t268.5 -266t97.5 -376.5t-97.5 -376.5t-268.5 -266.5t-380 -97t-379.5 97t-267 266.5t-96.5 376.5zM258 717q0 -173 77.5 -310.5t214 -213.5t306.5 -76t306.5 76t214 213.5t77.5 310.5 q0 170 -77.5 306.5t-214 214t-306.5 77.5t-306.5 -77.5t-214 -214t-77.5 -306.5zM469 702q0 204 109 330.5t286 126.5q90 0 169.5 -35.5t123.5 -91.5q9 -19 8 -22.5t-14 -16.5l-61 -65q-9 -9 -13.5 -12.5t-13 -2t-19.5 12.5q-83 73 -178 73q-103 0 -156 -79t-53 -218 q0 -134 53 -213t154 -79q98 0 172 71q7 7 12 10.5t8 5.5t7.5 0.5l6 -2t8 -6.5t9.5 -8l72 -65q19 -16 0 -39q-45 -53 -124.5 -91t-168.5 -38q-180 0 -288.5 127t-108.5 327z" />
<glyph unicode="&#xab;" horiz-adv-x="1179" d="M119 520q0 35 33 92l180 306q19 28 35.5 37.5t56.5 9.5h188q19 0 26 -13t-3 -32l-238 -402l252 -416q26 -45 -26 -45h-187q-41 0 -58 9t-30 34l-198 332q-31 60 -31 88zM551 520q0 8 1.5 17t3 14t6.5 16t6 14t8 16.5t8 14.5l182 306q19 28 35.5 37.5t56.5 9.5h186 q21 0 28 -13t-5 -32l-236 -402l252 -416q26 -45 -26 -45h-189q-39 0 -56 9t-30 34l-198 332q-33 64 -33 88z" />
<glyph unicode="&#xad;" horiz-adv-x="813" d="M104 514v184q0 26 7 34.5t30 8.5h521q23 0 29.5 -8t6.5 -35v-184q0 -25 -7 -34t-29 -9h-521q-22 0 -29.5 9.5t-7.5 33.5z" />
<glyph unicode="&#xae;" horiz-adv-x="1191" d="M109 979q0 206 142.5 345.5t348.5 139.5t344.5 -139.5t138.5 -345.5q0 -202 -142 -339.5t-345 -137.5q-209 0 -348 136.5t-139 340.5zM219 981q0 -160 108 -270.5t269 -110.5t268 108t107 273q0 162 -108 272.5t-267 110.5q-160 0 -268.5 -111t-108.5 -272zM395 737v469 q0 51 54 51h180q85 0 130.5 -43t45.5 -116q0 -42 -21.5 -78t-58.5 -53v-2q52 -17 66 -78l38 -148q4 -20 -12 -20h-88q-9 0 -13 0.5t-8.5 4.5t-7.5 13q-2 10 -16.5 63t-17.5 68q-15 66 -80 66h-68v-197q0 -12 -4 -15t-16 -3h-84q-19 0 -19 18zM518 1032h98q31 0 48.5 16 t17.5 42q0 59 -64 59h-100v-117z" />
<glyph unicode="&#xb4;" horiz-adv-x="1075" d="M350 1225q-3 9 4 26l144 357q9 26 25 28.5t38 -6.5l195 -51q32 -8 16 -37l-240 -352q-11 -18 -20.5 -21t-26.5 2l-114 39q-18 6 -21 15z" />
<glyph unicode="&#xb8;" horiz-adv-x="1054" d="M293.5 -458.5q-1.5 8.5 5.5 28.5l25 74q7 21 13 23.5t23 -3.5q89 -29 150 -29q106 0 106 70q0 64 -120 64h-12.5h-11h-9h-8t-6 0.5t-5 1t-4 1.5t-4.5 2.5l-4 3t-4 3.5q-17 15 -2 61l84 215l4 6q5 6 10 8.5t13 2.5h94q11 0 14.5 -3.5t2.5 -7.5t-5 -8l-65 -166 q140 -7 201 -61t61 -129q0 -91 -70 -154t-213 -63q-63 0 -132.5 13.5t-113.5 31.5q-16 6 -17.5 14.5z" />
<glyph unicode="&#xbb;" horiz-adv-x="1179" d="M100 102l254 416l-237 402q-12 19 -5 32t27 13h189q39 0 55 -9.5t35 -37.5l182 -306q2 -3 7 -13t7 -13.5t6 -12t5.5 -13.5t3.5 -12.5t3 -14t1 -13.5q0 -24 -33 -88l-199 -332q-11 -24 -28.5 -33.5t-57.5 -9.5h-188q-53 0 -27 45zM535 102l251 416l-235 402q-12 19 -5 32 t27 13h187q40 0 56.5 -9.5t35.5 -37.5l180 -306q35 -60 35 -92q0 -24 -33 -88l-198 -332q-13 -25 -30 -34t-56 -9h-189q-52 0 -26 45z" />
<glyph unicode="&#x2c6;" horiz-adv-x="1200" d="M191.5 1245.5q0.5 8.5 11.5 26.5l268 280q64 64 121 64q44 0 73 -14t60 -50l272 -278q17 -18 16.5 -27.5t-18.5 -27.5l-59 -58q-13 -11 -25 -10t-32 14l-285 201l-275 -205q-17 -11 -27.5 -10t-27.5 14l-61 58q-12 14 -11.5 22.5z" />
<glyph unicode="&#x2da;" horiz-adv-x="1157" d="M367 1407q0 104 73 173t181 69q107 0 179 -68.5t72 -173.5t-72 -173.5t-179 -68.5q-110 0 -182 67t-72 175zM520 1407q0 -47 28 -74.5t73 -27.5q42 0 70 28t28 74q0 43 -28.5 71.5t-69.5 28.5q-44 0 -72.5 -28.5t-28.5 -71.5z" />
<glyph unicode="&#x2dc;" horiz-adv-x="1189" d="M202 1290q-2 10 7 27q41 84 99 129t145 45q53 0 142.5 -41t131.5 -41q32 0 54 15t42 51q11 22 18 24.5t25 -4.5l103 -35q19 -6 22 -15.5t-6 -29.5q-42 -95 -99.5 -146.5t-144.5 -51.5q-52 0 -145.5 41.5t-140.5 41.5q-57 0 -97 -63q-13 -20 -21 -23.5t-26 5.5l-90 51 q-17 10 -19 20z" />
<glyph unicode="&#x401;" horiz-adv-x="1255" d="M154 377v680q0 76 20.5 142t63.5 120.5t117.5 85.5t174.5 31h588q24 0 31.5 -10t7.5 -40v-174q0 -26 -8 -35.5t-31 -9.5h-520q-74 0 -103.5 -33.5t-29.5 -93.5v-157h588q24 0 31.5 -9.5t7.5 -39.5v-160q0 -26 -7.5 -36.5t-31.5 -10.5h-588v-234q0 -69 32 -96t101 -27h541 q26 0 33.5 -9t7.5 -40v-174q0 -26 -8.5 -36.5t-32.5 -10.5h-607q-88 0 -155.5 21.5t-109 57t-67.5 86t-36 101.5t-10 111zM346 1673q0 61 46 106.5t106 45.5q62 0 107.5 -45.5t45.5 -106.5q0 -60 -45.5 -104.5t-107.5 -44.5q-60 0 -106 44.5t-46 104.5zM766 1673 q0 61 46 106.5t108 45.5q60 0 105.5 -45.5t45.5 -106.5q0 -60 -45.5 -104.5t-105.5 -44.5q-62 0 -108 44.5t-46 104.5z" />
<glyph unicode="&#x402;" horiz-adv-x="1650" d="M25 1208v183q0 26 7.5 34.5t30.5 8.5h1123q24 0 31.5 -7.5t7.5 -35.5v-183q0 -41 -39 -41h-461v-278q179 49 344 49q227 0 361.5 -132t134.5 -378q0 -174 -79 -337.5t-237 -270.5q-22 -13 -32.5 -12.5t-26.5 18.5l-113 127q-20 26 2 51q185 165 185 418q0 124 -67.5 193 t-195.5 69q-137 0 -276 -47v-598q0 -24 -7.5 -31.5t-35.5 -7.5h-229q-43 0 -43 39v1128h-347q-38 0 -38 41z" />
<glyph unicode="&#x403;" horiz-adv-x="1179" d="M154 43v1014q0 61 11.5 114.5t39.5 103t70 84.5t107.5 56t147.5 21h590q26 0 33.5 -10t7.5 -40v-174q0 -27 -8 -36t-33 -9h-522q-74 0 -103.5 -33t-29.5 -94v-997q0 -29 -8 -36t-39 -7h-217q-25 0 -36 9.5t-11 33.5zM480 1636.5q0 7.5 16 22.5l331 258q11 9 15.5 12.5 t14 2t20.5 -12.5l141 -162q12 -12 10 -23t-14 -16l-396 -202q-22 -9 -29.5 -7.5t-19.5 13.5l-77 94q-12 13 -12 20.5z" />
<glyph unicode="&#x404;" horiz-adv-x="1316" d="M113 713q0 333 182 537t477 204q244 0 402 -88q24 -12 26.5 -24.5t-10.5 -47.5l-64 -141q-11 -30 -21.5 -35.5t-39.5 4.5q-151 54 -279 54q-132 0 -218 -84t-111 -224h471q23 0 31 -8t8 -31v-174q0 -24 -7.5 -30.5t-31.5 -6.5h-484q13 -173 95.5 -265.5t255.5 -92.5 q61 0 125.5 13.5t93.5 23.5t96 35q30 10 41.5 5t22.5 -30l69 -147q13 -30 10 -43.5t-22 -24.5q-188 -115 -473 -115q-327 0 -486 192.5t-159 543.5z" />
<glyph unicode="&#x405;" horiz-adv-x="1228" d="M70.5 129.5q-2.5 12.5 7.5 38.5l69 164q10 24 22.5 28.5t35.5 -6.5q237 -96 405 -96q120 0 172 40t52 103q0 62 -49 104t-179 91q-119 45 -198.5 85t-147.5 93t-100.5 119t-32.5 149q0 182 124 299t363 117q118 0 245 -25.5t214 -68.5q25 -12 28.5 -23.5t-7.5 -42.5 l-54 -153q-10 -28 -20.5 -33t-34.5 2q-218 66 -371 66q-163 0 -163 -113q0 -53 51 -92t188 -94q68 -27 115 -47t101 -47.5t89.5 -54t71 -61.5t55.5 -73t32.5 -87t12.5 -105q0 -210 -144 -319.5t-390 -109.5q-143 0 -288.5 32t-254.5 97q-17 11 -19.5 23.5z" />
<glyph unicode="&#x406;" horiz-adv-x="673" d="M180 43v1348q0 24 11 33.5t36 9.5h217q31 0 40.5 -8.5t9.5 -34.5v-1348q0 -26 -9.5 -34.5t-40.5 -8.5h-217q-25 0 -36 9.5t-11 33.5z" />
<glyph unicode="&#x407;" horiz-adv-x="673" d="M-33 1679q0 61 46 106.5t106 45.5q62 0 107.5 -45.5t45.5 -106.5q0 -60 -45.5 -104.5t-107.5 -44.5q-60 0 -106 44.5t-46 104.5zM180 43v1348q0 24 11 33.5t36 9.5h217q31 0 40.5 -8.5t9.5 -34.5v-1348q0 -26 -9.5 -34.5t-40.5 -8.5h-217q-25 0 -36 9.5t-11 33.5z M387 1679q0 61 46 106.5t108 45.5q60 0 105.5 -45.5t45.5 -106.5q0 -60 -45.5 -104.5t-105.5 -44.5q-62 0 -108 44.5t-46 104.5z" />
<glyph unicode="&#x408;" horiz-adv-x="1208" d="M17.5 100q-1.5 7 9.5 37l73 168q10 22 20.5 24t29.5 -7q156 -66 315 -66q84 0 139 24t84 73t40 107.5t11 143.5v789q0 27 10 34t37 7h218q29 0 38 -6.5t9 -34.5v-840q0 -136 -29.5 -239t-94 -180t-174 -117t-261.5 -40q-106 0 -236 26t-219 79q-18 11 -19.5 18z" />
<glyph unicode="&#x409;" horiz-adv-x="2123" d="M25 135q-18 44 22 62q41 20 72 41t56.5 52t43 61t32 80.5t23.5 97t17 124.5t13.5 148.5t12.5 183.5l19 313q5 75 32.5 106.5t98.5 31.5h629q72 0 101.5 -33t29.5 -107v-381h301q100 0 181.5 -18.5t134.5 -47.5t92 -71.5t59.5 -82t32.5 -88t15 -81.5t3 -69 q0 -129 -65.5 -234t-177.5 -164t-247 -59h-518q-71 0 -97 28.5t-26 96.5v1038h-292l-9 -143q-26 -370 -42 -485q-37 -255 -128 -383q-95 -133 -286 -195q-23 -9 -38.5 -4t-25.5 29zM1227 274h297q55 0 96.5 19t62.5 49.5t31 62t10 62.5q0 84 -51 136t-145 52h-301v-381z" />
<glyph unicode="&#x40a;" horiz-adv-x="2154" d="M154 39v1356q0 39 43 39h227q28 0 35.5 -7.5t7.5 -31.5v-494h477v496q0 39 43 39h227q28 0 35.5 -7.5t7.5 -31.5v-492h299q101 0 182.5 -18.5t135 -47t93 -70t60 -81t32.5 -87.5t15 -80.5t3 -69.5q0 -193 -142 -322t-348 -129h-518q-71 0 -97 28.5t-26 96.5q0 14 -1 233 t-1 285h-477v-604q0 -24 -7.5 -31.5t-35.5 -7.5h-227q-43 0 -43 39zM1257 274h297q55 0 96.5 18.5t63 48t31.5 60.5t10 62q0 84 -51.5 133t-147.5 49h-299v-371z" />
<glyph unicode="&#x40b;" horiz-adv-x="1638" d="M25 1208v183q0 26 7.5 34.5t30.5 8.5h1117q23 0 31 -8.5t8 -34.5v-183q0 -41 -39 -41h-455v-278q196 47 350 47q230 0 345.5 -118.5t115.5 -346.5v-420q0 -31 -11.5 -41t-43.5 -10h-201q-55 0 -55 51v400q0 233 -238 233q-123 0 -262 -49v-596q0 -24 -7.5 -31.5 t-35.5 -7.5h-227q-43 0 -43 39v1128h-349q-38 0 -38 41z" />
<glyph unicode="&#x40c;" horiz-adv-x="1380" d="M154 33v1368q0 22 7.5 27.5t28.5 5.5h240q23 0 30 -5.5t3 -27.5v-522h164q29 0 51.5 2.5t53 13.5t53 29.5t44 54t33.5 84.5l92 346q6 29 41 29h230q23 0 29 -15t-1 -26l-94 -367q-41 -176 -174 -256v-10q99 -34 139 -88t68 -160l127 -475q7 -11 0.5 -26t-29.5 -15h-237 q-32 0 -41 29l-125 440q-31 102 -87.5 137t-168.5 35h-168l2 -608q0 -22 -7.5 -27.5t-29.5 -5.5h-238q-21 0 -28.5 5.5t-7.5 27.5zM506 1642.5q0 7.5 16 22.5l332 258q11 10 15.5 12.5t13.5 1.5t20 -12l141 -162q12 -12 10 -23t-14 -16l-395 -202q-22 -9 -29.5 -7.5 t-19.5 13.5l-78 94q-12 13 -12 20.5z" />
<glyph unicode="&#x40e;" horiz-adv-x="1241" d="M30.5 1430.5q8.5 9.5 28.5 9.5h238q35 0 47.5 -8t20.5 -33l151 -416l115 -338h14l109 354l129 398q11 28 21.5 35.5t41.5 7.5h248q40 0 25 -35l-420 -1165q-56 -153 -147 -215t-253 -62q-105 0 -196 29q-28 8 -34.5 15.5t-2.5 29.5l33 170q4 22 14 25t33 -3q63 -8 112 -8 q74 0 109 19.5t59 83.5l33 92h-53q-49 0 -70.5 16t-44.5 72l-360 897q-9 20 -0.5 29.5zM244 1731q-18 23 6 45l80 77q10 8 17 10.5t9.5 2t11.5 -8t13 -10.5q139 -139 254 -139q56 0 113 28.5t147 114.5q21 16 28 16t19 -12l78 -67q12 -12 15 -21.5t1 -14t-8 -11.5 q-187 -248 -405 -248q-113 0 -209.5 67t-169.5 171z" />
<glyph unicode="&#x40f;" horiz-adv-x="1484" d="M154 137v1258q0 39 43 39h225q29 0 36 -7t7 -32v-1127h555v1127q0 39 41 39h225q29 0 37 -7t8 -32v-1258q0 -71 -29.5 -104t-101.5 -33h-309l-14 -307q0 -39 -39 -39h-174q-23 0 -31 8.5t-10 32.5q0 41 -6 153t-11 152h-321q-70 0 -100.5 33t-30.5 104z" />
<glyph unicode="&#x410;" horiz-adv-x="1341" d="M29 41l426 1284q20 66 52.5 89.5t96.5 23.5h123q73 0 104.5 -20.5t55.5 -92.5l426 -1284q7 -12 0.5 -26.5t-27.5 -14.5h-244q-18 0 -28 1.5t-18.5 9t-12.5 22.5l-80 266h-469l-80 -260q-6 -22 -17.5 -30.5t-39.5 -8.5h-240q-39 0 -28 41zM508 553h321l-77 260l-76 293 h-12l-78 -293z" />
<glyph unicode="&#x411;" horiz-adv-x="1361" d="M154 123v1171q0 74 29.5 107t101.5 33h798q23 0 30 -9t7 -36v-183q0 -24 -7 -31.5t-30 -7.5h-618v-254h299q100 0 181.5 -19t134.5 -48t92.5 -71.5t60.5 -82.5t33 -89t15 -82t3 -70q0 -194 -141.5 -322.5t-349.5 -128.5h-517q-73 0 -97.5 27t-24.5 96zM465 272h297 q55 0 96 19t62.5 50t31 62.5t9.5 63.5q0 82 -51.5 134t-145.5 52h-299v-381z" />
<glyph unicode="&#x412;" horiz-adv-x="1392" d="M154 125v1184q0 69 25.5 98t96.5 29h502q129 0 225.5 -36.5t156 -119.5t59.5 -207q0 -85 -44 -160t-114 -114v-15q110 -43 164.5 -138.5t54.5 -209.5q0 -192 -141 -314t-348 -122h-515q-71 0 -96.5 28t-25.5 97zM465 274h295q56 0 96.5 17t61.5 45.5t30.5 58.5t9.5 62 q0 84 -51 134t-147 50h-295v-367zM465 891h278q28 0 53 6t49 21t38 44t14 70q0 61 -38.5 96t-104.5 35h-289v-272z" />
<glyph unicode="&#x413;" horiz-adv-x="1179" d="M154 43v1014q0 61 11.5 114.5t39.5 103t70 84.5t107.5 56t147.5 21h590q26 0 33.5 -10t7.5 -40v-174q0 -27 -8 -36t-33 -9h-522q-74 0 -103.5 -33t-29.5 -94v-997q0 -29 -8 -36t-39 -7h-217q-25 0 -36 9.5t-11 33.5z" />
<glyph unicode="&#x414;" horiz-adv-x="1599" d="M27 160q0 45 15 68.5t60 33.5l74 6q73 73 104 169.5t46 230.5l71 567q6 44 10.5 68t16 53t27.5 43.5t44 24.5t68 10h674q77 0 106 -33t29 -105v-1028l86 -6q44 -4 61 -24.5t15 -55.5l-27 -479q-2 -21 -10 -31t-27 -10h-176q-39 0 -39 43l-10 295h-923q-3 -53 -23 -295 q-3 -43 -45 -43h-166q-36 0 -39 41zM526 266h535v897h-379q-52 -461 -82 -639t-74 -258z" />
<glyph unicode="&#x415;" horiz-adv-x="1255" d="M154 377v680q0 76 20.5 142t63.5 120.5t117.5 85.5t174.5 31h588q24 0 31.5 -10t7.5 -40v-174q0 -26 -8 -35.5t-31 -9.5h-520q-74 0 -103.5 -33.5t-29.5 -93.5v-157h588q24 0 31.5 -9.5t7.5 -39.5v-160q0 -26 -7.5 -36.5t-31.5 -10.5h-588v-234q0 -69 32 -96t101 -27h541 q26 0 33.5 -9t7.5 -40v-174q0 -26 -8.5 -36.5t-32.5 -10.5h-607q-88 0 -155.5 21.5t-109 57t-67.5 86t-36 101.5t-10 111z" />
<glyph unicode="&#x416;" horiz-adv-x="2072" d="M52.5 15q-6.5 15 0.5 26l127 475q13 42 21.5 65.5t25 55.5t36 52t51 40.5t73.5 34.5v10q-127 65 -172 256l-94 367q-7 11 -0.5 26t29.5 15h229q35 0 41 -29l92 -346q12 -49 32 -84t41 -54t49 -30t50 -13.5t51 -2.5h148v522q-4 22 3 27.5t29 5.5h238q21 0 29 -5.5t8 -27.5 v-522h145q29 0 51 2.5t50.5 13.5t49.5 30t41 54t32 84l92 346q6 29 41 29h231q23 0 29.5 -15t-0.5 -26l-92 -367q-41 -176 -174 -256v-10q99 -34 138.5 -88t67.5 -160l127 -475q7 -11 1 -26t-29 -15h-246q-32 0 -41 29l-119 440q-32 103 -83 137.5t-163 34.5h-149v-608 q0 -22 -8 -27.5t-29 -5.5h-233q-22 0 -29.5 5.5t-7.5 27.5v608h-150q-111 0 -165.5 -35t-82.5 -137l-118 -440q-9 -29 -41 -29h-244q-23 0 -29.5 15z" />
<glyph unicode="&#x417;" horiz-adv-x="1284" d="M42 121.5q-2 13.5 11 42.5l74 145q11 25 23 30t43 -5q77 -34 180 -58t192 -24q147 0 222 57t75 154q0 74 -63 122t-193 52h-98q-46 0 -64 13.5t-18 58.5v90q0 42 16 60t56 18h114q103 1 158 44.5t55 118.5q0 72 -61 108t-160 36q-161 0 -340 -70q-36 -11 -47 -5t-22 36 l-54 133q-16 36 -13.5 46t28.5 28q89 52 216.5 79t260.5 27q104 0 193.5 -20.5t164 -63t117.5 -117t43 -174.5q0 -99 -57.5 -184t-155.5 -129v-10q116 -35 184 -124.5t68 -201.5q0 -104 -46 -190t-126.5 -143.5t-188 -89.5t-231.5 -34q-140 0 -287.5 28t-247.5 91 q-19 12 -21 25.5z" />
<glyph unicode="&#x418;" horiz-adv-x="1521" d="M154 141v1256q0 39 43 39h219q28 0 35.5 -7.5t7.5 -31.5v-922h12l174 287l354 581q37 59 64 76t88 17h84q75 0 104 -32t29 -112v-1253q0 -39 -43 -39h-219q-29 0 -37 7.5t-8 31.5v919h-10l-183 -307l-346 -561q-37 -58 -64 -74t-89 -16h-82q-75 0 -104 35t-29 106z" />
<glyph unicode="&#x419;" horiz-adv-x="1521" d="M154 141v1256q0 39 43 39h219q28 0 35.5 -7.5t7.5 -31.5v-922h12l174 287l354 581q37 59 64 76t88 17h84q75 0 104 -32t29 -112v-1253q0 -39 -43 -39h-219q-29 0 -37 7.5t-8 31.5v919h-10l-183 -307l-346 -561q-37 -58 -64 -74t-89 -16h-82q-75 0 -104 35t-29 106z M371 1724q-18 23 6 45l80 78q10 8 17 10.5t9.5 2t11.5 -8t13 -10.5q139 -139 254 -139q56 0 113 28.5t147 114.5q21 16 28 16t19 -12l78 -67q12 -12 15 -21.5t1 -14t-8 -11.5q-187 -248 -405 -248q-113 0 -209.5 66.5t-169.5 170.5z" />
<glyph unicode="&#x41a;" horiz-adv-x="1380" d="M154 33v1368q0 22 7.5 27.5t28.5 5.5h240q23 0 30 -5.5t3 -27.5v-522h164q29 0 51.5 2.5t53 13.5t53 29.5t44 54t33.5 84.5l92 346q6 29 41 29h230q23 0 29 -15t-1 -26l-94 -367q-41 -176 -174 -256v-10q99 -34 139 -88t68 -160l127 -475q7 -11 0.5 -26t-29.5 -15h-237 q-32 0 -41 29l-125 440q-31 102 -87.5 137t-168.5 35h-168l2 -608q0 -22 -7.5 -27.5t-29.5 -5.5h-238q-21 0 -28.5 5.5t-7.5 27.5z" />
<glyph unicode="&#x41b;" horiz-adv-x="1488" d="M25 135q-18 44 22 62q41 20 72 41t56.5 52t43 61t32 80.5t23.5 97t17 124.5t13.5 148.5t12.5 183.5l19 311q5 75 32.5 106.5t98.5 31.5h735q72 0 101.5 -33.5t29.5 -104.5v-1259q0 -24 -7 -30.5t-36 -6.5h-227q-24 0 -32.5 7t-8.5 30v1126h-399l-9 -143 q-26 -370 -42 -485q-37 -255 -128 -383q-95 -133 -286 -195q-23 -9 -38.5 -4t-25.5 29z" />
<glyph unicode="&#x41c;" horiz-adv-x="1781" d="M154 41v1251q0 78 29.5 111t101.5 33h118q56 0 84.5 -21t53.5 -76l223 -499l127 -291h8l139 319l209 467q26 58 56 79.5t94 21.5h100q69 0 100 -29t31 -104v-1262q0 -28 -9 -34.5t-38 -6.5h-203q-26 0 -35.5 7t-9.5 34v784h-12l-84 -190l-170 -377q-23 -54 -46.5 -72 t-70.5 -18h-112q-49 0 -69 16.5t-46 73.5l-127 266l-127 277h-12v-760q0 -28 -9 -34.5t-38 -6.5h-209q-27 0 -37 7t-10 34z" />
<glyph unicode="&#x41d;" horiz-adv-x="1486" d="M154 43v1348q0 24 11 33.5t36 9.5h217q31 0 40 -8.5t9 -34.5v-510h555v510q0 25 10.5 34t36.5 9h215q31 0 40 -8.5t9 -34.5v-1348q0 -26 -9 -34.5t-40 -8.5h-215q-26 0 -36.5 9t-10.5 34v573h-555v-573q0 -26 -9 -34.5t-40 -8.5h-217q-25 0 -36 9.5t-11 33.5z" />
<glyph unicode="&#x41e;" horiz-adv-x="1495" d="M113 715q0 345 169 543t463 198q313 0 475 -194t162 -541q0 -359 -159 -551.5t-484 -192.5q-313 0 -469.5 190t-156.5 548zM438 727q0 -112 15.5 -195t51 -146.5t97 -95.5t148.5 -32q85 0 147 37t95.5 102.5t49 144t15.5 173.5q0 79 -8 143.5t-29 125.5t-55 102.5 t-89 66.5t-128 25q-101 0 -172.5 -62.5t-104.5 -162.5t-33 -226z" />
<glyph unicode="&#x41f;" horiz-adv-x="1484" d="M154 39v1257q0 73 30 106.5t101 33.5h915q72 0 101.5 -33t29.5 -107v-1257q0 -24 -8 -31.5t-37 -7.5h-223q-43 0 -43 39v1124h-553v-1124q0 -24 -8 -31.5t-37 -7.5h-225q-43 0 -43 39z" />
<glyph unicode="&#x420;" horiz-adv-x="1318" d="M154 43v1268q0 62 26.5 93.5t95.5 31.5h502q219 0 349 -125.5t130 -323.5q0 -34 -4.5 -70t-18.5 -83.5t-36.5 -89t-62.5 -84t-93 -72.5t-131.5 -49t-173.5 -19h-272v-477q0 -29 -8.5 -36t-40.5 -7h-215q-25 0 -36 9.5t-11 33.5zM465 772h268q100 0 151.5 54.5t51.5 140.5 q0 32 -9.5 63t-30.5 62t-63.5 50t-101.5 19h-266v-389z" />
<glyph unicode="&#x421;" horiz-adv-x="1316" d="M113 709q0 336 182 540.5t477 204.5q244 0 402 -88q24 -12 26.5 -24.5t-10.5 -47.5l-64 -141q-11 -30 -21.5 -35.5t-39.5 4.5q-151 54 -279 54q-163 0 -254.5 -130.5t-91.5 -336.5q0 -104 18 -183t58.5 -140.5t110.5 -93.5t168 -32q61 0 125.5 13.5t93.5 23.5t96 35 q30 10 41.5 5t22.5 -30l69 -147q13 -30 10 -43.5t-22 -24.5q-188 -115 -473 -115q-328 0 -486.5 190t-158.5 542z" />
<glyph unicode="&#x422;" horiz-adv-x="1175" d="M25 1208v183q0 26 7.5 34.5t30.5 8.5h1049q25 0 33 -8.5t8 -34.5v-183q0 -41 -41 -41h-371v-1124q0 -26 -9 -34.5t-40 -8.5h-219q-25 0 -36 9.5t-11 33.5v1124h-363q-38 0 -38 41z" />
<glyph unicode="&#x423;" horiz-adv-x="1241" d="M30.5 1430.5q8.5 9.5 28.5 9.5h238q35 0 47.5 -8t20.5 -33l151 -416l115 -338h14l109 354l129 398q11 28 21.5 35.5t41.5 7.5h248q40 0 25 -35l-420 -1165q-56 -153 -147 -215t-253 -62q-105 0 -196 29q-28 8 -34.5 15.5t-2.5 29.5l33 170q4 22 14 25t33 -3q63 -8 112 -8 q74 0 109 19.5t59 83.5l33 92h-53q-49 0 -70.5 16t-44.5 72l-360 897q-9 20 -0.5 29.5z" />
<glyph unicode="&#x424;" horiz-adv-x="1777" d="M111 725q0 251 168 420.5t448 206.5v43q0 39 43 39h225q28 0 35.5 -7.5t7.5 -31.5v-43q303 -35 466 -195t163 -424q0 -260 -170.5 -426t-458.5 -196v-72q0 -24 -7.5 -31.5t-35.5 -7.5h-225q-43 0 -43 39v74q-299 29 -457.5 188t-158.5 424zM416 733q0 -152 76 -253.5 t235 -125.5v752q-99 -16 -171.5 -75t-106 -136t-33.5 -162zM1036 354q168 28 249 132.5t81 248.5q0 66 -18 125t-55 111.5t-103 88.5t-154 48v-754z" />
<glyph unicode="&#x425;" horiz-adv-x="1265" d="M17.5 14q-5.5 14 2.5 27l437 704l-400 652q-12 12 -4.5 25.5t29.5 13.5h240q41 0 56 -7.5t32 -37.5l225 -400l223 400q17 30 32 37.5t56 7.5h236q22 0 28 -14t-6 -27l-395 -647l436 -707q8 -13 2.5 -27t-22.5 -14h-256q-37 0 -54 9t-34 38l-250 445l-248 -445 q-19 -29 -35.5 -38t-54.5 -9h-252q-18 0 -23.5 14z" />
<glyph unicode="&#x426;" horiz-adv-x="1564" d="M154 137v1260q0 39 43 39h225q29 0 37 -7.5t8 -31.5v-1129h553v1129q0 39 41 39h225q29 0 37 -7.5t8 -31.5v-1123l103 -10q51 -4 65 -25.5t12 -64.5l-22 -473q-3 -41 -39 -41h-172q-38 0 -41 43l-12 297h-940q-70 0 -100.5 33t-30.5 104z" />
<glyph unicode="&#x427;" horiz-adv-x="1370" d="M84 997v400q0 39 43 39h225q26 0 34.5 -8t8.5 -31v-369q0 -144 73 -206t234 -62q118 0 203 18v619q0 23 9 31t34 8h223q29 0 37.5 -7.5t8.5 -31.5v-1358q0 -24 -8.5 -31.5t-37.5 -7.5h-223q-25 0 -34 8t-9 31v465q-109 -19 -243 -19q-157 0 -269.5 35t-179.5 103.5 t-98 160t-31 213.5z" />
<glyph unicode="&#x428;" horiz-adv-x="2072" d="M154 137v1260q0 39 43 39h229q28 0 35.5 -7.5t7.5 -31.5v-1127h416v1127q0 39 43 39h223q29 0 37 -7.5t8 -31.5v-1127h412v1127q0 24 7.5 31.5t35.5 7.5h227q41 0 41 -39v-1260q0 -70 -29.5 -103.5t-97.5 -33.5h-1511q-68 0 -97.5 33.5t-29.5 103.5z" />
<glyph unicode="&#x429;" horiz-adv-x="2152" d="M154 137v1260q0 39 43 39h229q28 0 35.5 -7.5t7.5 -31.5v-1129h416v1129q0 39 43 39h223q29 0 37 -7.5t8 -31.5v-1129h412v1129q0 39 41 39h227q28 0 35.5 -7.5t7.5 -31.5v-1123l102 -8q50 -4 65 -26t13 -66l-22 -473q-3 -39 -39 -39h-172q-23 0 -31 8.5t-10 32.5 l-13 297h-1531q-68 0 -97.5 33.5t-29.5 103.5z" />
<glyph unicode="&#x42a;" horiz-adv-x="1726" d="M23 1208v183q0 29 5.5 36t30.5 7h641q72 0 103 -33.5t31 -102.5v-383h299q100 0 181.5 -18.5t134 -47.5t91.5 -71t59.5 -81.5t32 -88.5t14.5 -81.5t3 -69.5q0 -129 -65.5 -234t-177.5 -164t-247 -59h-516q-71 0 -97 28.5t-26 96.5v1044h-461q-23 0 -29.5 7.5t-6.5 31.5z M834 274h294q55 0 96 19t62.5 49.5t31 61.5t9.5 63q0 84 -51.5 136t-145.5 52h-296v-381z" />
<glyph unicode="&#x42b;" horiz-adv-x="1884" d="M154 125v1272q0 39 41 39h227q28 0 35.5 -7.5t7.5 -31.5v-482h301q100 0 181.5 -18.5t134.5 -47.5t92 -71.5t59.5 -82t32.5 -88t15 -81.5t3 -69q0 -195 -142 -326t-347 -131h-519q-71 0 -96.5 28t-25.5 97zM465 274h297q55 0 96.5 19t63 49.5t31.5 62t10 62.5 q0 85 -51.5 136.5t-147.5 51.5h-299v-381zM1417 39v1356q0 39 43 39h228q28 0 35.5 -7.5t7.5 -31.5v-1356q0 -24 -7.5 -31.5t-35.5 -7.5h-228q-43 0 -43 39z" />
<glyph unicode="&#x42c;" horiz-adv-x="1361" d="M154 125v1272q0 39 41 39h227q28 0 35.5 -7.5t7.5 -31.5v-482h301q100 0 181.5 -18.5t134.5 -47.5t92 -71.5t59.5 -82t32.5 -88t15 -81.5t3 -69q0 -195 -142 -326t-347 -131h-519q-71 0 -96.5 28t-25.5 97zM465 274h297q55 0 96.5 19t63 49.5t31.5 62t10 62.5 q0 85 -51.5 136.5t-147.5 51.5h-299v-381z" />
<glyph unicode="&#x42d;" horiz-adv-x="1320" d="M62 116.5q-3 13.5 10 43.5l69 147q11 25 22.5 30t41.5 -5q67 -25 98.5 -35.5t96.5 -23.5t126 -13q167 0 248.5 92t99.5 266h-481q-24 0 -31.5 7t-7.5 30v174q0 25 8 33t31 8h477q-17 148 -100 227t-223 79q-132 0 -283 -54q-29 -10 -40.5 -4.5t-22.5 35.5l-56 141 q-14 35 -11 47.5t28 24.5q172 88 413 88q304 0 468.5 -181.5t164.5 -522.5q0 -177 -39 -317.5t-117 -243t-202 -157.5t-287 -55q-291 0 -479 115q-19 11 -22 24.5z" />
<glyph unicode="&#x42e;" horiz-adv-x="2009" d="M154 39v1356q0 39 43 39h223q29 0 37 -7.5t8 -31.5v-516h219q37 267 195.5 422t408.5 155q199 0 337 -93.5t204.5 -257.5t66.5 -388q0 -170 -38 -305.5t-113.5 -233t-194 -149.5t-272.5 -52q-118 0 -214 32t-163.5 89t-115.5 138t-73.5 175t-33.5 205h-213v-577 q0 -24 -8 -31.5t-37 -7.5h-223q-43 0 -43 39zM991 723q0 -467 297 -467q77 0 134.5 35.5t90.5 99.5t48.5 145t15.5 181q0 103 -14 183t-46.5 144t-90 98t-138.5 34q-98 0 -166 -59.5t-99.5 -159.5t-31.5 -234z" />
<glyph unicode="&#x42f;" horiz-adv-x="1382" d="M68 23q0 4 4 24l104 397q21 86 61 136t125 75v4q-116 39 -171.5 132.5t-55.5 218.5q0 192 124.5 308t344.5 116h500q70 0 96.5 -30t26.5 -95v-1274q0 -22 -9 -28.5t-34 -6.5h-228q-29 0 -37 6t-8 29v545h-190q-95 0 -146 -40t-77 -139q-53 -176 -92 -360q-4 -15 -12 -24 t-22 -12t-23 -4t-25 -1h-226q-30 0 -30 23zM455 995q0 -76 47 -120t137 -44h272v328h-278q-50 0 -86.5 -15t-55.5 -40.5t-27.5 -52t-8.5 -56.5z" />
<glyph unicode="&#x430;" horiz-adv-x="1179" d="M92 319q0 165 110 266t322 101h226v33q0 68 -37 106.5t-142 38.5q-65 0 -148.5 -11t-139.5 -28q-26 -6 -36.5 0t-15.5 27l-32 143q-6 23 -2 32t22 15q177 62 395 62q220 0 326.5 -94.5t106.5 -282.5v-594q0 -30 -8 -47t-35 -33q-161 -76 -435 -76q-477 0 -477 342z M399 342q0 -129 179 -129q105 0 170 27v247h-162q-187 0 -187 -145z" />
<glyph unicode="&#x431;" horiz-adv-x="1210" d="M84 553q0 104 5 186t17.5 166.5t34.5 149.5t57.5 126.5t84 106.5t115.5 81t151 58q43 12 98.5 24t150.5 31t134 27q17 7 28 3t15 -25l43 -172q2 -6 2.5 -11.5t0.5 -9.5t-2 -7.5t-3 -5t-5 -4t-5 -3t-6 -2.5l-5 -2q-43 -11 -82.5 -20t-82 -17.5t-66.5 -13.5 q-190 -40 -258 -100t-80 -199q2 0 4 -2l4 -5q128 84 289 84q110 0 191.5 -38.5t128.5 -107.5t69.5 -155.5t22.5 -191.5q0 -81 -17 -154.5t-57.5 -141.5t-100.5 -118t-152.5 -80.5t-207.5 -32.5q-94 0 -170 16.5t-129 45t-92.5 71.5t-63 90t-37.5 108.5t-19 118t-5 126.5z M399 489q0 -123 45 -193.5t158 -70.5q50 0 89.5 16t63.5 41.5t40 61.5t22 72.5t6 77.5q0 50 -8.5 92t-28.5 81.5t-59.5 62t-95.5 22.5q-119 0 -219 -62q-13 -114 -13 -201z" />
<glyph unicode="&#x432;" horiz-adv-x="1214" d="M133 104v857q0 59 23.5 86.5t91.5 27.5h477q74 0 135 -14.5t110.5 -45.5t77 -85t27.5 -127q0 -62 -31.5 -118t-89.5 -87v-12q60 -23 98.5 -65.5t54 -89t15.5 -99.5q0 -148 -111 -240t-282 -92h-473q-70 0 -96.5 24t-26.5 80zM426 231h258q71 0 101 38t30 85 q0 56 -32.5 87.5t-96.5 31.5h-260v-242zM426 670h248q37 0 64.5 22t27.5 68q0 37 -23 61.5t-63 24.5h-254v-176z" />
<glyph unicode="&#x433;" horiz-adv-x="1001" d="M133 41v717q0 54 8 98t30 86t57.5 70.5t94.5 45.5t138 17h481q25 0 32 -9t7 -38v-147q0 -26 -8 -36.5t-31 -10.5h-393q-69 0 -94 -26.5t-25 -84.5v-682q0 -26 -8 -33.5t-39 -7.5h-203q-47 0 -47 41z" />
<glyph unicode="&#x434;" horiz-adv-x="1335" d="M16 143q0 38 15.5 59t54.5 25l66 6q53 50 78.5 132t37.5 204l56 389q8 60 38.5 88.5t106.5 28.5h539q74 0 99.5 -29.5t25.5 -95.5v-717l69 -6q68 -7 68 -82l-25 -430q0 -30 -33 -30h-180q-18 0 -24.5 7t-8.5 25l-12 283h-686q-3 -48 -8 -141.5t-8 -141.5 q-2 -19 -8.5 -25.5t-26.5 -6.5h-178q-31 0 -31 30zM459 231h375v600h-254q-57 -491 -121 -600z" />
<glyph unicode="&#x435;" horiz-adv-x="1163" d="M92 532q0 268 137 419t371 151q237 0 358 -119t121 -344q0 -101 -38.5 -142.5t-114.5 -41.5h-525q4 -123 69 -174.5t177 -51.5q115 0 236 52q25 8 34.5 5t16.5 -20l65 -147q7 -19 3.5 -28.5t-21.5 -20.5q-70 -46 -169 -69.5t-194 -23.5q-270 0 -398 134t-128 421z M408 645h383q0 99 -42 155t-143 56q-83 0 -136.5 -58.5t-61.5 -152.5z" />
<glyph unicode="&#x436;" horiz-adv-x="1689" d="M46 21q1 8 1 16l105 354q13 40 23.5 64t30 51t49.5 44.5t73 29.5l-2 4q-106 43 -146 188l-76 268q-5 35 25 35h229q27 0 35 -26l70 -226q27 -81 69 -111t103 -30h61v360q0 22 7.5 27.5t29.5 5.5h223q21 0 29 -5.5t8 -27.5v-360h62q61 0 103 30t69 111l69 226q8 26 35 26 h230q29 0 24 -35l-76 -268q-40 -146 -145 -188l-2 -4q43 -12 73 -29.5t49.5 -44.5t30 -51t23.5 -64l104 -354q5 -11 0 -24t-26 -13h-238q-28 0 -35 25l-94 315q-38 123 -174 123h-82v-430q0 -22 -8 -27.5t-29 -5.5h-223q-22 0 -29.5 5.5t-7.5 27.5v430h-82q-137 0 -172 -123 l-96 -315q-7 -25 -35 -25h-237q-15 0 -22 6.5t-6 14.5z" />
<glyph unicode="&#x437;" horiz-adv-x="1044" d="M47.5 73.5q-3.5 12.5 3.5 28.5l53 150q4 12 9.5 16.5t16 4.5t30.5 -5q71 -22 153.5 -35.5t139.5 -13.5q110 0 161.5 38t51.5 95q0 55 -55.5 83.5t-180.5 29.5q-40 2 -59 16.5t-19 48.5v62q0 33 20 47t60 16q197 12 197 109q0 50 -44.5 70t-125.5 20q-103 0 -250 -45 q-25 -9 -34.5 -6t-16.5 18l-49 137q-12 24 -9.5 36t25.5 22q79 39 184.5 61.5t208.5 22.5q196 0 306 -72.5t110 -216.5q0 -72 -43.5 -135t-112.5 -101v-8q88 -29 138.5 -93t50.5 -150q0 -110 -67 -189.5t-175 -117t-242 -37.5q-241 0 -411 71q-21 10 -24.5 22.5z" />
<glyph unicode="&#x438;" horiz-adv-x="1280" d="M133 115v927q0 33 37 33h219q25 0 32 -6.5t7 -26.5v-626h10q62 105 109.5 181.5t50.5 80.5q75 117 205 330q30 42 53 54.5t74 12.5h100q60 0 87.5 -24.5t27.5 -89.5v-928q0 -20 -8 -26.5t-29 -6.5h-221q-25 0 -32 5.5t-7 27.5v614h-10q-34 -52 -92.5 -147.5t-83.5 -134.5 q-189 -295 -191 -297q-29 -42 -53 -55t-74 -13h-96q-68 0 -91.5 27t-23.5 88z" />
<glyph unicode="&#x439;" horiz-adv-x="1280" d="M133 115v927q0 33 37 33h219q25 0 32 -6.5t7 -26.5v-626h10q62 105 109.5 181.5t50.5 80.5q75 117 205 330q30 42 53 54.5t74 12.5h100q60 0 87.5 -24.5t27.5 -89.5v-928q0 -20 -8 -26.5t-29 -6.5h-221q-25 0 -32 5.5t-7 27.5v614h-10q-34 -52 -92.5 -147.5t-83.5 -134.5 q-189 -295 -191 -297q-29 -42 -53 -55t-74 -13h-96q-68 0 -91.5 27t-23.5 88zM252 1413q-18 23 6 45l80 78q10 8 17 10.5t9.5 2t11.5 -8t13 -10.5q139 -139 254 -139q56 0 113 28.5t147 114.5q21 16 28 16t19 -12l78 -68q12 -12 15 -21.5t1 -14t-8 -11.5 q-186 -247 -405 -247q-113 0 -209.5 66.5t-169.5 170.5z" />
<glyph unicode="&#x43a;" horiz-adv-x="1177" d="M133 33v1009q0 22 8 27.5t29 5.5h223q22 0 29.5 -5.5t7.5 -27.5v-356h96q61 0 102 28.5t68 108.5l72 226q6 26 35 26h227q30 0 25 -35l-76 -268q-40 -146 -145 -188l-3 -4q43 -12 73 -30t49.5 -44.5t30.5 -50.5t24 -64l104 -354q0 -8 1 -16t-6 -14.5t-22 -6.5h-235 q-28 0 -35 25l-96 315q-36 117 -172 117h-117v-424q0 -22 -7.5 -27.5t-29.5 -5.5h-223q-21 0 -29 5.5t-8 27.5z" />
<glyph unicode="&#x43b;" horiz-adv-x="1220" d="M21.5 159q3.5 12 29.5 25q77 35 112.5 83.5t55 149t33.5 314.5l14 223q5 68 32.5 94.5t94.5 26.5h572q70 0 96 -28.5t26 -96.5v-911q0 -25 -9 -32t-38 -7h-206q-29 0 -38.5 8.5t-9.5 32.5v793h-251l-7 -107q-6 -99 -11.5 -166.5t-15 -140.5t-22.5 -121t-33 -98.5 t-46.5 -83.5t-63.5 -65t-84 -54.5t-107 -40.5q-30 -9 -41.5 -3t-19.5 28l-55 139q-11 26 -7.5 38z" />
<glyph unicode="&#x43c;" horiz-adv-x="1550" d="M133 39v917q0 119 123 119h127q48 0 78 -16t53 -66l148 -311l104 -236h12l117 256l137 281q25 54 55.5 73t90.5 19h116q123 0 123 -114v-922q0 -25 -9 -32t-36 -7h-201q-25 0 -35 7t-10 32v571h-10l-84 -196l-100 -217q-18 -40 -42.5 -55t-66.5 -15h-100q-47 0 -68.5 14 t-40.5 56l-98 213l-82 188h-8v-559q0 -25 -9.5 -32t-35.5 -7h-203q-25 0 -35 7t-10 32z" />
<glyph unicode="&#x43d;" horiz-adv-x="1241" d="M133 41v995q0 39 45 39h205q29 0 38 -7t9 -32v-350h383v350q0 39 45 39h205q29 0 37 -7t8 -32v-995q0 -26 -8 -33.5t-37 -7.5h-205q-45 0 -45 41v412h-383v-412q0 -26 -9 -33.5t-38 -7.5h-205q-45 0 -45 41z" />
<glyph unicode="&#x43e;" horiz-adv-x="1218" d="M92 539q0 263 138 413t378 150q254 0 386 -146.5t132 -412.5q0 -274 -131 -420t-391 -146t-386 145t-126 417zM399 543q0 -157 49.5 -235.5t157.5 -78.5q109 0 160 84.5t51 223.5q0 313 -205 313q-106 0 -159.5 -81t-53.5 -226z" />
<glyph unicode="&#x43f;" horiz-adv-x="1257" d="M133 39v922q0 55 25 84.5t92 29.5h758q67 0 91.5 -29t24.5 -85v-922q0 -24 -8 -31.5t-37 -7.5h-213q-43 0 -43 39v795h-393v-795q0 -24 -7.5 -31.5t-35.5 -7.5h-211q-43 0 -43 39z" />
<glyph unicode="&#x440;" horiz-adv-x="1236" d="M133 -383v1335q0 24 8 37.5t33 26.5q182 82 453 82q113 0 202 -28.5t148 -78.5t97 -121.5t54.5 -153t16.5 -177.5q0 -117 -29.5 -216t-87 -176t-151 -121t-213.5 -44q-115 0 -232 24v-389q0 -23 -7 -29t-36 -6h-213q-25 0 -34 6.5t-9 28.5zM432 260q88 -22 170 -22 q232 0 232 307q0 162 -61.5 229.5t-184.5 67.5q-79 0 -156 -23v-559z" />
<glyph unicode="&#x441;" horiz-adv-x="1046" d="M92 535q0 263 137.5 415t372.5 152q187 0 324 -70q26 -12 29.5 -22t-7.5 -35l-57 -158q-10 -22 -22.5 -24.5t-41.5 6.5q-116 37 -202 37q-114 0 -169 -84.5t-55 -216.5q0 -139 51.5 -215t178.5 -76q114 0 235 47q26 11 36.5 7.5t17.5 -26.5l57 -153q12 -20 10 -33.5 t-24 -24.5q-154 -84 -379 -84q-242 0 -367 140.5t-125 417.5z" />
<glyph unicode="&#x442;" horiz-adv-x="1007" d="M20 879v149q0 29 7.5 38t33.5 9h885q25 0 33 -9t8 -38v-149q0 -45 -41 -45h-297v-793q0 -26 -9 -33.5t-38 -7.5h-203q-47 0 -47 41v793h-291q-41 0 -41 45z" />
<glyph unicode="&#x443;" horiz-adv-x="1144" d="M25 1036q-13 39 26 39h240q31 0 42 -7t17 -30l117 -413l96 -357h12l105 363l123 403q6 24 16.5 32.5t40.5 8.5h244q33 0 22 -33l-413 -1222v2q-47 -140 -134 -201t-235 -61q-115 0 -203 28q-25 6 -31.5 14t-0.5 31l34 162q6 23 14 27t31 -2q54 -10 101 -10 q75 0 114.5 24.5t61.5 93.5l37 111h-60q-47 0 -67 16.5t-39 71.5z" />
<glyph unicode="&#x444;" horiz-adv-x="1574" d="M92 543q0 128 43.5 232.5t119 173t174.5 107t212 42.5v362q0 23 8.5 30t32.5 7h213q29 0 36 -6t7 -31v-366q117 -4 216 -42t172.5 -106.5t115 -171.5t41.5 -231q0 -244 -141.5 -397.5t-403.5 -170.5v-352q0 -24 -7 -30.5t-36 -6.5h-213q-24 0 -32.5 7t-8.5 30v354 q-261 17 -405 170.5t-144 395.5zM385 530q0 -130 66 -222t190 -103v643q-124 -10 -190 -93t-66 -225zM938 205q87 11 145.5 57.5t83.5 113.5t25 152q0 143 -63.5 224.5t-190.5 91.5v-639z" />
<glyph unicode="&#x445;" horiz-adv-x="1071" d="M16.5 12.5q-5.5 12.5 6.5 32.5l346 522l-310 471q-9 10 -4.5 23.5t23.5 13.5h246q30 0 44.5 -8t24.5 -31l144 -264l145 264q12 23 26.5 31t43.5 8h241q38 0 23 -35l-316 -469l349 -528q12 -17 6.5 -30t-29.5 -13h-240q-33 0 -46.5 9.5t-26.5 35.5l-178 315l-183 -315 q-13 -25 -28.5 -35t-44.5 -10h-234q-23 0 -28.5 12.5z" />
<glyph unicode="&#x446;" horiz-adv-x="1329" d="M133 129v909q0 37 43 37h213q28 0 34.5 -6.5t6.5 -30.5v-800h385v800q0 37 43 37h215q25 0 33 -7t8 -30v-798l96 -9q40 -4 54 -24.5t12 -56.5l-23 -435q0 -30 -30 -30h-183q-18 0 -24 7t-8 25l-11 283h-743q-68 0 -94.5 33.5t-26.5 95.5z" />
<glyph unicode="&#x447;" horiz-adv-x="1179" d="M84 772v270q0 33 37 33h223q23 0 30 -6.5t7 -26.5v-241q0 -120 42.5 -161.5t156.5 -41.5q88 0 170 23v421q0 33 36 33h222q23 0 31 -6.5t8 -26.5v-1009q0 -20 -8 -26.5t-31 -6.5h-222q-36 0 -36 33v350q-129 -25 -215 -25q-125 0 -213.5 28t-140 83.5t-74.5 129.5 t-23 173z" />
<glyph unicode="&#x448;" horiz-adv-x="1810" d="M133 129v909q0 37 43 37h213q28 0 34.5 -6.5t6.5 -30.5v-800h330v800q0 37 41 37h215q26 0 34.5 -7t8.5 -30v-800h321v800q0 23 8.5 30t34.5 7h213q41 0 41 -37v-909q0 -63 -26.5 -96t-96.5 -33h-1300q-68 0 -94.5 33.5t-26.5 95.5z" />
<glyph unicode="&#x449;" horiz-adv-x="1890" d="M133 129v909q0 37 43 37h213q28 0 34.5 -6.5t6.5 -30.5v-800h330v800q0 37 41 37h215q26 0 34.5 -7t8.5 -30v-800h321v800q0 37 43 37h211q25 0 33 -7t8 -30v-800l97 -9q40 -4 54.5 -25t12.5 -57l-22 -432q-3 -30 -33 -30h-180q-20 0 -26.5 7t-8.5 25l-10 283h-1305 q-68 0 -94.5 33.5t-26.5 95.5z" />
<glyph unicode="&#x44a;" horiz-adv-x="1447" d="M20 881v151q0 26 7 34.5t30 8.5h510q62 0 88.5 -25.5t26.5 -80.5l-2 -230h254q83 0 150.5 -15t111.5 -38.5t77.5 -57.5t51.5 -66t28.5 -70.5t13.5 -65.5t3 -55q0 -158 -115.5 -264.5t-287.5 -106.5h-455q-74 0 -101.5 29.5t-27.5 89.5v715h-326q-22 0 -29.5 10.5 t-7.5 36.5zM680 233h240q42 0 72.5 14t45 37t21 45.5t6.5 45.5q0 60 -37 98.5t-106 38.5h-242v-279z" />
<glyph unicode="&#x44b;" horiz-adv-x="1662" d="M133 119v917q0 39 45 39h207q29 0 37 -7t8 -32v-297h254q83 0 150.5 -15t111.5 -38.5t77.5 -57.5t51.5 -66t28.5 -70.5t13.5 -65.5t3 -55q0 -158 -115.5 -264.5t-287.5 -106.5h-455q-75 0 -102 29t-27 90zM430 233h240q41 0 71.5 14t45.5 37t21.5 45.5t6.5 45.5 q0 60 -37 98.5t-106 38.5h-242v-279zM1235 41v995q0 39 45 39h205q29 0 37 -7t8 -32v-995q0 -26 -8 -33.5t-37 -7.5h-205q-45 0 -45 41z" />
<glyph unicode="&#x44c;" horiz-adv-x="1196" d="M133 119v917q0 39 45 39h205q29 0 38 -7t9 -32v-297h254q83 0 150.5 -15t111.5 -38.5t77.5 -57.5t51.5 -66t28.5 -70.5t13.5 -65.5t3 -55q0 -158 -115.5 -264.5t-287.5 -106.5h-455q-75 0 -102 29t-27 90zM430 233h240q41 0 71.5 14t45.5 37t21.5 45.5t6.5 45.5 q0 60 -37 98.5t-106 38.5h-242v-279z" />
<glyph unicode="&#x44d;" horiz-adv-x="1046" d="M56 82q-2 13 7 35l62 155q7 22 17 25t34 -6q129 -47 236 -47t161.5 53t65.5 156h-299q-27 0 -27 26v158q0 25 27 25h293q-22 174 -203 174q-93 0 -209 -37q-29 -9 -41 -6.5t-22 24.5l-49 158q-10 24 -6.5 35t30.5 22q150 70 328 70q236 0 365.5 -139t129.5 -400 q0 -288 -128 -437t-375 -149q-225 0 -373 82q-22 10 -24 23z" />
<glyph unicode="&#x44e;" horiz-adv-x="1677" d="M133 41v995q0 39 45 39h205q30 0 38.5 -7t8.5 -32v-356h156q36 201 163.5 312.5t331.5 111.5q248 0 376 -147.5t128 -413.5q0 -270 -127.5 -418t-380.5 -148q-457 0 -497 472h-150v-408q0 -26 -8 -33.5t-39 -7.5h-205q-45 0 -45 41zM885 543q0 -157 46 -234.5t148 -77.5 q99 0 147 83t48 225q0 311 -191 311q-96 0 -147 -80t-51 -227z" />
<glyph unicode="&#x44f;" horiz-adv-x="1212" d="M63 20v9q0 5 3 8q16 46 45 139t45 139q11 31 20 50.5t26.5 43.5t45 41.5t65.5 28.5v4q-184 61 -184 271q0 140 101.5 230.5t271.5 90.5h459q104 0 114 -80q2 -25 2 -73v-889q0 -33 -41 -33h-211q-25 0 -33 7t-8 26v375h-159q-77 0 -120 -25.5t-65 -95.5q-23 -80 -73 -244 q-11 -43 -68 -43h-205q-31 0 -31 20zM426 727q0 -57 36.5 -89t108.5 -32h213v242h-219q-72 0 -105.5 -37t-33.5 -84z" />
<glyph unicode="&#x451;" horiz-adv-x="1163" d="M92 532q0 268 137 419t371 151q237 0 358 -119t121 -344q0 -101 -38.5 -142.5t-114.5 -41.5h-525q4 -123 69 -174.5t177 -51.5q115 0 236 52q25 8 34.5 5t16.5 -20l65 -147q7 -19 3.5 -28.5t-21.5 -20.5q-70 -46 -169 -69.5t-194 -23.5q-270 0 -398 134t-128 421z M238 1370q0 61 45.5 106.5t105.5 45.5q62 0 108 -45.5t46 -106.5q0 -60 -46 -104.5t-108 -44.5q-60 0 -105.5 44.5t-45.5 104.5zM408 645h383q0 99 -42 155t-143 56q-83 0 -136.5 -58.5t-61.5 -152.5zM657 1370q0 61 46 106.5t108 45.5q60 0 106 -45.5t46 -106.5 q0 -60 -46 -104.5t-106 -44.5q-62 0 -108 44.5t-46 104.5z" />
<glyph unicode="&#x452;" horiz-adv-x="1239" d="M41 1217v79q0 27 25 27h86v135q0 39 41 39h210q29 0 37.5 -7.5t8.5 -31.5v-135h354q24 0 24 -31v-71q0 -18 -5.5 -24.5t-18.5 -6.5h-354v-186q97 30 227 30q226 0 352.5 -135.5t126.5 -388.5q0 -202 -91.5 -372.5t-238.5 -264.5q-23 -13 -36.5 -10.5t-30.5 22.5l-105 123 q-10 18 -6.5 28.5t21.5 24.5q182 182 182 422q0 295 -238 295q-84 0 -163 -24v-715q0 -24 -8.5 -31.5t-37.5 -7.5h-208q-24 0 -33.5 7.5t-9.5 29.5v1153h-86q-14 0 -19.5 5t-5.5 22z" />
<glyph unicode="&#x453;" horiz-adv-x="1001" d="M133 41v717q0 54 8 98t30 86t57.5 70.5t94.5 45.5t138 17h481q25 0 32 -9t7 -38v-147q0 -26 -8 -36.5t-31 -10.5h-393q-69 0 -94 -26.5t-25 -84.5v-682q0 -26 -8 -33.5t-39 -7.5h-203q-47 0 -47 41zM421.5 1256q-2.5 9 4.5 26l143 356q9 26 25.5 29t38.5 -6l194 -51 q33 -9 17 -37l-240 -352q-11 -18 -20.5 -21t-26.5 2l-115 39q-18 6 -20.5 15z" />
<glyph unicode="&#x454;" horiz-adv-x="1046" d="M92 535q0 261 137.5 414t372.5 153q181 3 324 -70q26 -12 29.5 -22t-7.5 -35l-57 -158q-10 -22 -22.5 -24.5t-41.5 6.5q-116 37 -202 37q-88 -1 -140.5 -49.5t-70.5 -131.5h295q16 0 20 -5.5t4 -18.5v-160q0 -27 -24 -27h-299q26 -200 221 -200q114 0 235 47 q26 11 36.5 7.5t17.5 -26.5l57 -153q12 -20 10 -33.5t-24 -24.5q-154 -84 -379 -84q-242 0 -367 140.5t-125 417.5z" />
<glyph unicode="&#x455;" horiz-adv-x="1017" d="M66.5 100q-2.5 11 7.5 31l59 141q11 24 21.5 28.5t33.5 -5.5q67 -29 161.5 -51.5t156.5 -22.5q133 0 133 90q0 40 -40.5 69.5t-145.5 68.5q-87 33 -145.5 63.5t-104 69.5t-67 87.5t-21.5 110.5q0 141 102.5 231.5t296.5 90.5q205 0 360 -70q22 -10 25 -21.5t-6 -35.5 l-51 -131q-7 -22 -17.5 -25.5t-33.5 4.5q-152 47 -271 47q-51 0 -77.5 -23.5t-26.5 -53.5q0 -40 36 -66t134 -63q59 -23 96 -39t83.5 -40.5t74.5 -49.5t54 -58.5t38 -76t12 -93.5q0 -161 -115 -245.5t-311 -84.5q-115 0 -230.5 25t-201.5 76q-17 11 -19.5 22z" />
<glyph unicode="&#x456;" horiz-adv-x="638" d="M154 1356q0 71 50 120.5t120 49.5q71 0 121.5 -49.5t50.5 -120.5q0 -72 -50 -120t-122 -48q-70 0 -120 48.5t-50 119.5zM172 37v1001q0 22 9.5 29.5t33.5 7.5h209q29 0 37 -7t8 -30v-1001q0 -23 -8 -30t-37 -7h-209q-24 0 -33.5 7.5t-9.5 29.5z" />
<glyph unicode="&#x457;" horiz-adv-x="643" d="M-33 1376q0 61 46 106.5t106 45.5q62 0 107.5 -45.5t45.5 -106.5q0 -60 -45.5 -104.5t-107.5 -44.5q-60 0 -106 44.5t-46 104.5zM174 37v1001q0 22 9.5 29.5t33.5 7.5h211q29 0 36 -6.5t7 -30.5v-1001q0 -24 -7 -30.5t-36 -6.5h-211q-24 0 -33.5 7.5t-9.5 29.5zM387 1376 q0 61 46 106.5t108 45.5q60 0 105.5 -45.5t45.5 -106.5q0 -60 -45.5 -104.5t-105.5 -44.5q-62 0 -108 44.5t-46 104.5z" />
<glyph unicode="&#x458;" horiz-adv-x="653" d="M-49.5 -222.5q4.5 8.5 29.5 21.5q118 59 160 139t42 216v884q0 23 8.5 30t32.5 7h215q28 0 34.5 -6.5t6.5 -30.5v-882q0 -114 -20.5 -206t-55 -155.5t-86.5 -113t-107 -79.5t-124 -53q-21 -7 -32.5 -7.5t-18.5 5t-12 19.5l-68 176q-9 27 -4.5 35.5zM164 1356 q0 71 50.5 120.5t121.5 49.5q72 0 121 -49t49 -121t-49 -120t-121 -48t-122 48t-50 120z" />
<glyph unicode="&#x459;" horiz-adv-x="1785" d="M21.5 159q3.5 12 29.5 25q77 35 112.5 83.5t55 149t33.5 314.5l14 223q5 68 32.5 94.5t94.5 26.5h512q65 0 91 -28t26 -86v-232h254q83 0 150 -15t111 -38.5t77 -57t50.5 -65.5t28 -70t13 -64t2.5 -54q0 -158 -113.5 -261.5t-285.5 -103.5h-457q-75 0 -102 29t-27 90v715 h-188l-7 -107q-6 -99 -11.5 -166.5t-15 -140.5t-22.5 -121t-33 -98.5t-46.5 -83.5t-63.5 -65t-84 -54.5t-107 -40.5q-30 -9 -41.5 -3t-19.5 28l-55 139q-11 26 -7.5 38zM1020 233h242q77 0 109 41.5t32 94.5q0 61 -37 96t-104 35h-242v-267z" />
<glyph unicode="&#x45a;" horiz-adv-x="1800" d="M133 41v995q0 39 45 39h205q29 0 38 -7t9 -32v-338h326v338q0 39 45 39h205q29 0 37 -7t8 -32v-331h247q109 0 190.5 -26.5t124.5 -64t69.5 -89.5t33 -90.5t6.5 -78.5q0 -155 -111.5 -255.5t-279.5 -100.5h-446q-75 0 -102 29t-27 90v350h-326v-428q0 -26 -9 -33.5 t-38 -7.5h-205q-45 0 -45 41zM1053 233h231q73 0 103 39t30 88q0 59 -34 89t-97 30h-233v-246z" />
<glyph unicode="&#x45b;" horiz-adv-x="1247" d="M23 1223v80q0 18 3.5 22t20.5 4h86v129q0 39 41 39h213q28 0 35.5 -7.5t7.5 -31.5v-129h361q24 0 24 -31v-71q0 -19 -5.5 -25t-18.5 -6h-361v-197q110 35 240 35q220 0 333 -118.5t113 -337.5v-541q0 -25 -7.5 -31t-37.5 -6h-213q-24 0 -33.5 7.5t-9.5 29.5v504 q0 115 -45.5 176t-157.5 61q-120 0 -182 -28v-713q0 -25 -7 -31t-36 -6h-211q-24 0 -33.5 7.5t-9.5 29.5v1159h-86q-17 0 -20.5 4.5t-3.5 22.5z" />
<glyph unicode="&#x45c;" horiz-adv-x="1177" d="M133 33v1009q0 22 8 27.5t29 5.5h223q22 0 29.5 -5.5t7.5 -27.5v-356h96q61 0 102 28.5t68 108.5l72 226q6 26 35 26h227q30 0 25 -35l-76 -268q-40 -146 -145 -188l-3 -4q43 -12 73 -30t49.5 -44.5t30.5 -50.5t24 -64l104 -354q0 -8 1 -16t-6 -14.5t-22 -6.5h-235 q-28 0 -35 25l-96 315q-36 117 -172 117h-117v-424q0 -22 -7.5 -27.5t-29.5 -5.5h-223q-21 0 -29 5.5t-8 27.5zM444.5 1225q-2.5 9 4.5 26l143 357q9 26 25 28.5t38 -6.5l195 -51q32 -8 16 -37l-239 -352q-11 -18 -20.5 -21t-26.5 2l-115 39q-18 6 -20.5 15z" />
<glyph unicode="&#x45e;" horiz-adv-x="1144" d="M25 1036q-13 39 26 39h240q31 0 42 -7t17 -30l117 -413l96 -357h12l105 363l123 403q6 24 16.5 32.5t40.5 8.5h244q33 0 22 -33l-413 -1222v2q-47 -140 -134 -201t-235 -61q-115 0 -203 28q-25 6 -31.5 14t-0.5 31l34 162q6 23 14 27t31 -2q54 -10 101 -10 q75 0 114.5 24.5t61.5 93.5l37 111h-60q-47 0 -67 16.5t-39 71.5zM199 1417q-18 23 6 45l80 78q10 8 17 10.5t9.5 2t11.5 -8t13 -10.5q139 -139 254 -139q56 0 113 28.5t147 114.5q21 16 28 16t19 -12l78 -67q27 -25 8 -48q-186 -247 -405 -247q-113 0 -209.5 66.5 t-169.5 170.5z" />
<glyph unicode="&#x45f;" horiz-adv-x="1286" d="M133 129v909q0 37 43 37h213q28 0 34.5 -6.5t6.5 -30.5v-800h426v800q0 24 7 30.5t36 6.5h213q41 0 41 -37v-909q0 -62 -26.5 -95.5t-94.5 -33.5h-244l-14 -307q0 -35 -33 -35h-188q-32 0 -35 37l-16 305h-248q-68 0 -94.5 33.5t-26.5 95.5z" />
<glyph unicode="&#x490;" horiz-adv-x="1187" d="M154 43v1014q0 61 11.5 114.5t39.5 103t70 84.5t107.5 56t147.5 21h349v239q0 39 41 39h198q26 0 34.5 -8t8.5 -31v-375q0 -69 -30 -101t-105 -32h-428q-74 0 -103.5 -33t-29.5 -94v-997q0 -29 -8 -36t-39 -7h-217q-25 0 -36 9.5t-11 33.5z" />
<glyph unicode="&#x491;" horiz-adv-x="1017" d="M133 41v717q0 54 8 98t30.5 86t58 70.5t94.5 45.5t137 17l274 2v234q0 37 41 37h178q26 0 34.5 -7t8.5 -30v-346q0 -67 -29 -99t-104 -32h-315q-69 0 -94 -26.5t-25 -84.5v-682q0 -26 -8 -33.5t-39 -7.5h-203q-47 0 -47 41z" />
<glyph unicode="&#x4d9;" horiz-adv-x="1163" d="M92 442q0 104 38 144.5t116 42.5h522q-4 122 -68.5 172.5t-175.5 50.5q-106 0 -237 -49q-16 -7 -25 -8t-15 3.5t-11 16.5l-64 148q-8 19 -4.5 29t20.5 20q73 46 171.5 69t193.5 23q270 0 398 -134t128 -421q0 -268 -137 -418.5t-371 -150.5q-239 0 -359 118.5t-120 343.5 zM379 436q5 -101 45 -156t139 -55q84 0 138.5 59t62.5 152h-385z" />
<glyph unicode="&#x2000;" horiz-adv-x="968" />
<glyph unicode="&#x2001;" horiz-adv-x="1937" />
<glyph unicode="&#x2002;" horiz-adv-x="968" />
<glyph unicode="&#x2003;" horiz-adv-x="1937" />
<glyph unicode="&#x2004;" horiz-adv-x="645" />
<glyph unicode="&#x2005;" horiz-adv-x="484" />
<glyph unicode="&#x2006;" horiz-adv-x="322" />
<glyph unicode="&#x2007;" horiz-adv-x="322" />
<glyph unicode="&#x2008;" horiz-adv-x="242" />
<glyph unicode="&#x2009;" horiz-adv-x="387" />
<glyph unicode="&#x200a;" horiz-adv-x="107" />
<glyph unicode="&#x2010;" horiz-adv-x="813" d="M104 514v184q0 26 7 34.5t30 8.5h521q23 0 29.5 -8t6.5 -35v-184q0 -25 -7 -34t-29 -9h-521q-22 0 -29.5 9.5t-7.5 33.5z" />
<glyph unicode="&#x2011;" horiz-adv-x="813" d="M104 514v184q0 26 7 34.5t30 8.5h521q23 0 29.5 -8t6.5 -35v-184q0 -25 -7 -34t-29 -9h-521q-22 0 -29.5 9.5t-7.5 33.5z" />
<glyph unicode="&#x2012;" horiz-adv-x="813" d="M104 514v184q0 26 7 34.5t30 8.5h521q23 0 29.5 -8t6.5 -35v-184q0 -25 -7 -34t-29 -9h-521q-22 0 -29.5 9.5t-7.5 33.5z" />
<glyph unicode="&#x2013;" horiz-adv-x="1024" d="M43 541v129q0 43 41 43h856q41 0 41 -43v-129q0 -28 -8 -35.5t-33 -7.5h-856q-25 0 -33 7.5t-8 35.5z" />
<glyph unicode="&#x2014;" horiz-adv-x="2048" d="M41 541v129q0 43 41 43h1884q41 0 41 -43v-129q0 -28 -8 -35.5t-33 -7.5h-1884q-25 0 -33 7.5t-8 35.5z" />
<glyph unicode="&#x2018;" horiz-adv-x="694" d="M131 926l148 489q6 25 14.5 34t30.5 9h110q50 0 47 -39l-28 -493q-3 -47 -50 -47h-233q-59 0 -39 47z" />
<glyph unicode="&#x2019;" horiz-adv-x="694" d="M174 918l31 493q2 24 11 35.5t36 11.5h233q57 0 41 -47l-147 -489q-8 -26 -16.5 -34.5t-30.5 -8.5h-109q-26 0 -38 9.5t-11 29.5z" />
<glyph unicode="&#x201a;" horiz-adv-x="577" d="M131 -229l25 516q2 26 12 37.5t37 11.5h233q55 0 43 -49l-147 -514q-6 -25 -14.5 -33t-30.5 -8h-111q-50 0 -47 39z" />
<glyph unicode="&#x201c;" horiz-adv-x="1052" d="M131 926l148 489q6 25 14.5 34t30.5 9h110q50 0 47 -39l-28 -493q-3 -47 -50 -47h-233q-59 0 -39 47zM575 926l150 489q6 25 14.5 34t30.5 9h111q50 0 47 -39l-29 -493q-2 -24 -11 -35.5t-36 -11.5h-236q-53 0 -41 47z" />
<glyph unicode="&#x201d;" horiz-adv-x="1052" d="M131 918l29 493q2 24 11 35.5t36 11.5h233q57 0 41 -47l-147 -489q-6 -25 -15 -34t-32 -9h-109q-28 0 -38.5 9t-8.5 30zM575 918l31 493q0 47 49 47h232q57 0 41 -47l-148 -489q-8 -27 -15.5 -35t-29.5 -8h-110q-53 0 -50 39z" />
<glyph unicode="&#x201e;" horiz-adv-x="1026" d="M131 -233l25 524q2 23 12 34t37 11h233q32 0 40 -11.5t3 -33.5l-147 -522q-6 -24 -14 -30.5t-31 -6.5h-111q-50 0 -47 35zM557 -233l27 524q2 23 11 34t36 11h233q32 0 40 -11.5t3 -33.5l-145 -522q-8 -24 -15 -30.5t-30 -6.5h-111q-26 0 -38.5 9t-10.5 26z" />
<glyph unicode="&#x2022;" horiz-adv-x="913" d="M174 639q0 123 85 208t208 85t210 -85t87 -208t-87 -208t-210 -85t-208 85t-85 208z" />
<glyph unicode="&#x2026;" horiz-adv-x="1755" d="M117 160q0 78 54 131t134 53q82 0 136.5 -53t54.5 -131t-55 -131.5t-136 -53.5q-78 0 -133 53.5t-55 131.5zM692 160q0 78 55.5 131t133.5 53q81 0 135.5 -53t54.5 -131t-55 -131.5t-135 -53.5q-77 0 -133 54t-56 131zM1257 160q0 78 55.5 131t135.5 53t134 -53t54 -131 t-54.5 -131.5t-133.5 -53.5q-80 0 -135.5 53.5t-55.5 131.5z" />
<glyph unicode="&#x202f;" horiz-adv-x="387" />
<glyph unicode="&#x2039;" horiz-adv-x="772" d="M119 520q0 35 33 92l180 306q19 28 35.5 37.5t56.5 9.5h188q19 0 26 -13t-3 -32l-238 -402l252 -416q26 -45 -26 -45h-187q-41 0 -58 9t-30 34l-198 332q-31 60 -31 88z" />
<glyph unicode="&#x203a;" horiz-adv-x="772" d="M111 102l254 416l-238 402q-10 19 -3 32t26 13h188q39 0 55 -9.5t35 -37.5l182 -306q2 -3 7 -13t7 -13.5t6 -12t5.5 -13.5t3.5 -12.5t3 -14t1 -13.5q0 -24 -33 -88l-196 -332q-13 -24 -30.5 -33.5t-57.5 -9.5h-189q-52 0 -26 45z" />
<glyph unicode="&#x205f;" horiz-adv-x="484" />
<glyph unicode="&#x20ac;" d="M84 522v88q0 15 1 21.5t8 11t22 4.5h870q15 0 21.5 -5t7 -10t0.5 -22v-88v-17.5t-2.5 -10t-8.5 -8t-18 -1.5h-448q25 -119 100.5 -178t210.5 -59q57 0 111.5 10.5t81 19.5t89.5 33q30 10 39.5 7t20.5 -23l76 -156q10 -24 5 -35.5t-24 -23.5q-165 -103 -434 -103 q-525 0 -600 508h-98q-22 0 -26.5 7t-4.5 30zM84 776v88q0 15 1 21.5t8 11t22 4.5h108q44 228 209 363t395 135q214 0 371 -78q24 -12 28 -26t-7 -40l-66 -153q-11 -21 -20 -24.5t-39 5.5q-131 45 -254 45q-108 0 -183 -60t-108 -167h436q15 0 21.5 -5t7 -10t0.5 -22v-88 v-17.5t-2.5 -10t-8.5 -8t-18 -1.5h-870q-22 0 -26.5 7t-4.5 30z" />
<glyph unicode="&#x2122;" horiz-adv-x="1787" d="M66 1305v102q0 29 28 29h621q28 0 28 -29v-102q0 -27 -28 -27h-213v-627q0 -15 -6 -20.5t-25 -5.5h-141q-29 0 -29 26v627h-207q-28 0 -28 27zM803 651v703q0 80 90 80h70q38 0 58 -13t34 -45l106 -264l72 -182h6q3 13 37.5 96.5t36.5 89.5l104 258q14 33 36.5 46.5 t64.5 13.5h59q44 0 66 -17.5t22 -62.5v-703q0 -16 -6 -19t-23 -3h-133h-14.5t-8 2t-5 6.5t-0.5 13.5v463h-9l-47 -141l-76 -195q-12 -31 -27 -42t-44 -11h-72q-30 0 -44 11t-26 42l-73 185l-51 145h-9v-457q0 -16 -5 -19t-21 -3h-140q-12 0 -16 0.5t-8 5.5t-4 16z" />
<glyph unicode="&#x25fc;" horiz-adv-x="1075" d="M0 0v1075h1075v-1075h-1075z" />
</font>
</defs>
</svg>
